<svg xmlns="http://www.w3.org/2000/svg" width="16" height="16"><style>.st0{fill:#aeaeae}</style><path class="st0" d="M8 7h1v1H8V7zM10 9h1v1h-1V9zM10 11h1v1h-1v-1zM8 5h1v1H8V5zM8 9h1v1H8V9zM8 13h1v1H8v-1zM8 11h1v1H8v-1zM6 5h1v1H6V5zM12 9h1v1h-1V9zM12 7h1v1h-1V7zM12 5h1v1h-1V5zM12 11h1v1h-1v-1zM10 5h1v1h-1V5zM12 13h1v1h-1v-1zM10 7h1v1h-1V7zM10 13h1v1h-1v-1zM2 7h1v1H2V7zM2 9h1v1H2V9zM4 13h1v1H4v-1zM6 7h1v1H6V7zM2 13h1v1H2v-1zM2 11h1v1H2v-1zM2 5h1v1H2V5zM6 11h1v1H6v-1zM4 11h1v1H4v-1zM6 9h1v1H6V9zM6 13h1v1H6v-1zM4 5h1v1H4V5zM4 9h1v1H4V9zM4 7h1v1H4V7z"/><path class="st0" d="M12 1V0h-2v1H5V0H3v1H0v15h15V1h-3zm-2 1h2v1h-2V2zM3 2h2v1H3V2zm11 13H1V4h13v11z"/></svg>