<svg version="1" viewBox="0 0 400 380" xmlns="http://www.w3.org/2000/svg"><path d="M151.35 307.2h113c0-16.064-1.147-19.25-27.75-19.25 4.25-12.75 21.525-43.596 31.125-43.596 8.493 0 18.625.468 18.625 19.846 0 22 37.023 57.471 46 43 13.379-21.566-23-14.989-23-67 0-71.153 41.525-61.024 41.525-101 0-20-5.525-22.701-5.525-37 0-18.898 16.648-17.801 13.409-33.47-2.238-10.823-3.989-19.503-5.293-32.591-.926-9.287-1.22-19.184-10.867-18.787-11.334.468-15.633 20.417-33.25 21.847-17.581 1.427-32.571-14.967-39.375-12.625-6.747 2.322-4.625 20.625-.625 33.625 6.287 20.432 20 47-5 51s-68 8-99 49-29.856 89.117-42 104c-40.758 49.951-82.525 29.442-82.525 71 0 18.606 31.525 32 36.525 26s-42.485-23.879 10.646-45c45.392-18.044 49.444-21.728 63.354-9z" fill="#929292" fill-rule="evenodd"/></svg>