<?xml version="1.0" encoding="UTF-8" standalone="no"?><!DOCTYPE svg PUBLIC "-//W3C//DTD SVG 1.1//EN" "http://www.w3.org/Graphics/SVG/1.1/DTD/svg11.dtd"><svg width="100%" height="100%" viewBox="0 0 138 101" version="1.1" xmlns="http://www.w3.org/2000/svg" xmlns:xlink="http://www.w3.org/1999/xlink" xml:space="preserve" xmlns:serif="http://www.serif.com/" style="fill-rule:evenodd;clip-rule:evenodd;stroke-linejoin:round;stroke-miterlimit:1.41421;"><path d="M99.932,27.884c-5.397,5.693 -9.464,3.929 -19.643,6.786c-12.941,3.632 -15.892,19.643 -16.963,27.499c-1.072,7.857 0.892,21.964 0.714,24.821c-0.055,0.878 0.068,1.786 -0.379,2.231c-1.007,1.002 -3.013,0.805 -3.013,0.805c-8.206,-0.172 -11.251,-1.429 -20,-1.786c-8.75,-0.357 -19.449,2.781 -25.892,1.429c-6.385,-1.34 -7.857,-3.75 -11.786,-3.75c-3.929,0 -3.929,3.929 -0.179,6.428c3.75,2.5 10.892,6.965 21.785,4.822c10.893,-2.143 19.108,-0.179 25.893,0.178c6.785,0.356 18.035,-0.535 21.428,0.356c3.392,0.894 8.392,3.394 16.607,2.679c8.214,-0.714 12.495,-0.822 14.999,-0.714c1.028,0.045 3.705,-0.089 5.849,-1.295c0,0 6.16,1.34 7.767,1.34c1.608,0 3.93,-0.938 3.482,-2.411c0,0 -0.031,-0.933 1.206,-1.205c0.877,-0.192 2.544,-0.134 2.812,-1.875c0.268,-1.741 -2.059,-3.011 -2.009,-5.49c0.03,-1.474 -1.339,-7.903 -2.277,-11.117c-0.937,-3.214 -2.946,-6.161 -0.669,-9.91c2.277,-3.751 8.303,-18.482 8.303,-23.303c0,-4.822 -1.339,-10.848 -0.535,-11.384c0.803,-0.535 2.946,0.268 4.687,-0.134c1.741,-0.401 4.419,-2.545 5.089,-3.75c0.67,-1.205 -0.67,-3.75 -1.071,-5.625c-0.402,-1.875 0,-5.759 -0.938,-7.633c-0.938,-1.876 -4.017,-5.491 -6.161,-6.965c0,0 2.947,-6.964 1.875,-8.571c-1.071,-1.606 -5.758,2.946 -7.5,3.884c-1.741,0.937 -6.562,2.679 -9.508,3.616c-2.947,0.938 -6.241,4.313 -8.169,8.17c-2.545,5.089 -2.545,8.436 -5.804,11.874" style="fill:#9ba7b0;fill-rule:nonzero;"/></svg>