<svg clip-rule="evenodd" fill-rule="evenodd" stroke-linejoin="round" stroke-miterlimit="1.414" viewBox="0 0 138 101" xmlns="http://www.w3.org/2000/svg"><path d="M99.932 27.884c-5.397 5.693-9.464 3.929-19.643 6.786-12.941 3.632-15.892 19.643-16.963 27.499-1.072 7.857.892 21.964.714 24.821-.055.878.068 1.786-.379 2.231-1.007 1.002-3.013.805-3.013.805-8.206-.172-11.251-1.429-20-1.786-8.75-.357-19.449 2.781-25.892 1.429-6.385-1.34-7.857-3.75-11.786-3.75s-3.929 3.929-.179 6.428c3.75 2.5 10.892 6.965 21.785 4.822s19.108-.179 25.893.178c6.785.356 18.035-.535 21.428.356 3.392.894 8.392 3.394 16.607 2.679 8.214-.714 12.495-.822 14.999-.714 1.028.045 3.705-.089 5.849-1.295 0 0 6.16 1.34 7.767 1.34 1.608 0 3.93-.938 3.482-2.411 0 0-.031-.933 1.206-1.205.877-.192 2.544-.134 2.812-1.875s-2.059-3.011-2.009-5.49c.03-1.474-1.339-7.903-2.277-11.117-.937-3.214-2.946-6.161-.669-9.91 2.277-3.751 8.303-18.482 8.303-23.303 0-4.822-1.339-10.848-.535-11.384.803-.535 2.946.268 4.687-.134 1.741-.401 4.419-2.545 5.089-3.75s-.67-3.75-1.071-5.625c-.402-1.875 0-5.759-.938-7.633-.938-1.876-4.017-5.491-6.161-6.965 0 0 2.947-6.964 1.875-8.571-1.071-1.606-5.758 2.946-7.5 3.884-1.741.937-6.562 2.679-9.508 3.616-2.947.938-6.241 4.313-8.169 8.17-2.545 5.089-2.545 8.436-5.804 11.874" fill="#9ba7b0" fill-rule="nonzero"/></svg>