<?xml version="1.0" encoding="UTF-8" standalone="no"?><!DOCTYPE svg PUBLIC "-//W3C//DTD SVG 1.1//EN" "http://www.w3.org/Graphics/SVG/1.1/DTD/svg11.dtd"><svg width="100%" height="100%" viewBox="0 0 156 148" version="1.1" xmlns="http://www.w3.org/2000/svg" xmlns:xlink="http://www.w3.org/1999/xlink" xml:space="preserve" xmlns:serif="http://www.serif.com/" style="fill-rule:evenodd;clip-rule:evenodd;stroke-linejoin:round;stroke-miterlimit:1.41421;"><path d="M44.288,129.99c0,0 -3.242,-2.894 -1.728,-5.271c1.515,-2.378 8.871,-13.079 11.249,-13.727c2.378,-0.648 7.244,-1.618 13.948,-1.399c6.702,0.218 15.351,1.626 17.836,6.493c2.484,4.866 5.184,11.569 6.48,15.137c1.296,3.569 4.213,9.192 6.808,10.274c2.595,1.082 9.081,1.192 10.486,0.436c1.406,-0.756 0.975,-3.675 -0.106,-4.648c-1.081,-0.975 -3.134,-1.407 -4.216,-1.407c-1.081,-0.001 -2.241,-0.567 -2.594,-1.623c-0.324,-0.973 -1.862,-3.513 -2.105,-8.434c-0.053,-1.081 1.784,1.136 3.837,2.65c2.053,1.514 11.942,8.438 16.429,10.602c4.486,2.164 6.593,4.488 8.215,6.381c1.62,1.892 4.484,2.543 6.485,1.246c2,-1.297 3.299,-4.053 2.164,-6.756c-1.133,-2.704 -7.402,-6.436 -9.186,-7.734c-1.783,-1.298 -11.997,-9.194 -12.968,-14.816c-0.971,-5.622 3.951,-12.323 4.708,-13.242c0.757,-0.919 0.161,2.918 3.027,4.542c2.863,1.623 5.944,2.435 7.134,1.516c1.19,-0.917 2.541,-3.891 3.785,-4.431c1.244,-0.54 5.947,-2.809 7.137,-5.402c1.191,-2.595 2.923,-7.513 4.166,-7.675c1.242,-0.162 7.189,2.327 9.134,2.003c1.946,-0.323 -0.54,-1.73 -2.27,-2.974c-1.729,-1.244 -10.32,-9.138 -11.455,-10.328c-1.134,-1.19 -5.985,-6.278 -11.457,-7.032c-5.703,-0.786 -11.703,0.022 -15.19,-0.385c-3.486,-0.406 -6.728,-3.245 -11.351,-3.652c-4.621,-0.407 -7.864,-0.49 -12.565,-3.491c-4.702,-3.002 -19.619,-10.792 -28.861,-11.525c-9.245,-0.733 -19.787,3.154 -22.381,3.965c-2.596,0.81 -7.218,2.51 -7.541,-1.544c-0.324,-4.055 3.166,-10.782 8.763,-15.645c5.597,-4.864 9.654,-12.565 9.575,-19.294c-0.079,-6.731 -0.888,-10.786 2.113,-13.136c3.001,-2.351 6.243,-0.078 8.028,-3.565c1.786,-3.486 -3.484,-5.838 -7.943,-6.085c-4.46,-0.244 -10.993,2.578 -12.978,12.078c-0.64,3.063 1.13,11.919 -4.223,17.755c-5.354,5.836 -16.524,17.892 -17.444,27.967c-0.163,1.784 0.404,4.703 -0.896,10.379c-1.299,5.675 -5.274,10.62 -5.196,17.432c0.08,6.81 2.024,9.487 0.158,14.676c-1.867,5.188 -4.787,6.565 -6.246,7.619c-1.461,1.053 -3.651,1.783 -3.814,5.026c-0.163,3.243 -1.626,11.594 -1.141,17.919c0.483,6.324 1.861,8.515 5.104,8.84c3.243,0.325 7.054,0.084 8.108,-1.051c1.055,-1.135 1.137,-4.054 -0.646,-5.271c-1.783,-1.217 -3.648,-0.326 -3.648,-1.623c0.001,-1.297 -0.159,-9.811 3.41,-11.107c3.568,-1.296 14.677,-4.292 16.787,-5.589c2.107,-1.296 0.242,2.028 -0.164,2.839c-0.407,0.81 -1.623,4.053 -0.813,6c0.81,1.945 4.619,8.191 8.59,11.841c3.973,3.65 7.719,7.517 13.457,8.194c1.378,0.163 6.405,0.084 7.055,-1.943c0.649,-2.026 0.163,-3.486 -1.133,-4.703c-1.297,-1.217 -2.838,-1.056 -4.783,-0.975c-1.947,0.08 -2.028,-0.649 -2.838,-1.542c-0.811,-0.891 -1.864,-2.352 -4.296,-4.785" style="fill:#e87d24;fill-rule:nonzero;"/></svg>