<svg clip-rule="evenodd" fill-rule="evenodd" stroke-linejoin="round" stroke-miterlimit="1.414" viewBox="0 0 156 148" width="156" height="148" xmlns="http://www.w3.org/2000/svg"><path d="M44.288 129.99s-3.242-2.894-1.728-5.271c1.515-2.378 8.871-13.079 11.249-13.727s7.244-1.618 13.948-1.399c6.702.218 15.351 1.626 17.836 6.493 2.484 4.866 5.184 11.569 6.48 15.137 1.296 3.569 4.213 9.192 6.808 10.274s9.081 1.192 10.486.436c1.406-.756.975-3.675-.106-4.648-1.081-.975-3.134-1.407-4.216-1.407-1.081-.001-2.241-.567-2.594-1.623-.324-.973-1.862-3.513-2.105-8.434-.053-1.081 1.784 1.136 3.837 2.65s11.942 8.438 16.429 10.602c4.486 2.164 6.593 4.488 8.215 6.381 1.62 1.892 4.484 2.543 6.485 1.246 2-1.297 3.299-4.053 2.164-6.756-1.133-2.704-7.402-6.436-9.186-7.734-1.783-1.298-11.997-9.194-12.968-14.816s3.951-12.323 4.708-13.242.161 2.918 3.027 4.542c2.863 1.623 5.944 2.435 7.134 1.516 1.19-.917 2.541-3.891 3.785-4.431s5.947-2.809 7.137-5.402c1.191-2.595 2.923-7.513 4.166-7.675 1.242-.162 7.189 2.327 9.134 2.003 1.946-.323-.54-1.73-2.27-2.974-1.729-1.244-10.32-9.138-11.455-10.328-1.134-1.19-5.985-6.278-11.457-7.032-5.703-.786-11.703.022-15.19-.385-3.486-.406-6.728-3.245-11.351-3.652-4.621-.407-7.864-.49-12.565-3.491-4.702-3.002-19.619-10.792-28.861-11.525-9.245-.733-19.787 3.154-22.381 3.965-2.596.81-7.218 2.51-7.541-1.544-.324-4.055 3.166-10.782 8.763-15.645 5.597-4.864 9.654-12.565 9.575-19.294-.079-6.731-.888-10.786 2.113-13.136 3.001-2.351 6.243-.078 8.028-3.565C61.607 2.613 56.337.261 51.878.014 47.418-.23 40.885 2.592 38.9 12.092c-.64 3.063 1.13 11.919-4.223 17.755-5.354 5.836-16.524 17.892-17.444 27.967-.163 1.784.404 4.703-.896 10.379-1.299 5.675-5.274 10.62-5.196 17.432.08 6.81 2.024 9.487.158 14.676-1.867 5.188-4.787 6.565-6.246 7.619-1.461 1.053-3.651 1.783-3.814 5.026S-.387 124.54.098 130.865c.483 6.324 1.861 8.515 5.104 8.84s7.054.084 8.108-1.051c1.055-1.135 1.137-4.054-.646-5.271s-3.648-.326-3.648-1.623c.001-1.297-.159-9.811 3.41-11.107 3.568-1.296 14.677-4.292 16.787-5.589 2.107-1.296.242 2.028-.164 2.839-.407.81-1.623 4.053-.813 6 .81 1.945 4.619 8.191 8.59 11.841 3.973 3.65 7.719 7.517 13.457 8.194 1.378.163 6.405.084 7.055-1.943.649-2.026.163-3.486-1.133-4.703-1.297-1.217-2.838-1.056-4.783-.975-1.947.08-2.028-.649-2.838-1.542-.811-.891-1.864-2.352-4.296-4.785" fill="#e87d24" fill-rule="nonzero"/></svg>
