<svg width="600" height="600" version="1" viewBox="0 0 1 1" xmlns="http://www.w3.org/2000/svg"><g fill="#929292" stroke-miterlimit="10.433" stroke-width="0"><path d="M.736.905H.73L.726.907H.72L.717.908H.685L.682.905.68.905H.677L.674.902H.672L.67.902.668.9H.666L.664.897.662.897.661.895.659.894.658.892.656.891V.889L.653.888V.886L.65.882.65.878.648.874V.869L.646.865.646.86V.803L.639.668.612.793C.607.816.6.838.634.856c.024.02-.003.05-.029.046C.527.905.54.852.545.816L.55.763l.012-.11-.01-.027A.85.85 0 0 1 .344.553L.297.56C.275.563.281.588.28.604L.272.648l-.039.1-.003.01a.072.072 0 0 0 .008.048L.26.848C.275.871.28.93.235.911h.001L.204.898C.18.888.16.824.153.778L.154.71C.134.706.126.823.134.848l.02.061C.16.93.137.936.121.936.083.936.066.897.058.865L.052.84A.193.193 0 0 1 .066.713l.01-.02C.092.651.071.622.066.601.05.536.036.472.083.408L.087.403C.085.398.07.388.064.363.046.307.03.215.052.215L.067.214c.037 0 .025.152.07.142L.453.36.51.344C.53.34.547.326.565.314L.602.293c.04.042.077.068.137.09.016.123-.002.15-.018.225l-.005.03a.598.598 0 0 0-.013.162l.002.026C.703.85.719.853.739.859.752.866.762.892.736.905zM.803.146l.002.002h.001L.81.152l.003.003.004.003L.82.16l.004.003.003.004.004.003.004.003.003.004.008.007.003.004.004.003.003.004.003.004.023.023C.896.237.918.235.937.24L.945.24c.02.011.014.034.007.05L.947.302C.927.35.867.353.826.331L.807.32H.801L.788.329.762.351A.389.389 0 0 1 .627.26L.71.157l.027-.04.006-.013L.748.09S.774.06.788.065c.015.006.024.034.02.048L.805.13v.016"/></g></svg>