<svg clip-rule="evenodd" fill-rule="evenodd" stroke-linejoin="round" stroke-miterlimit="1.414" viewBox="0 0 114 157" xmlns="http://www.w3.org/2000/svg"><path d="M108.66 136.17c2.479.001 2.581-1.135 3.2-1.239.621-.104 1.241-.104 1.759-.517.516-.412.312-3.512-.308-4.649-.619-1.137-2.479-3.305-3.097-5.063-.619-1.757-3.51-10.436-3.616-11.677-.099-1.239.209-2.581-.098-3.511-.31-.93-2.377-3.927-2.998-5.167-.616-1.24-1.131-5.579-1.856-7.337-.72-1.755-2.579-3.201-2.786-4.236-.207-1.034.003-6.613-.411-7.955-.413-1.342-2.168-4.132-2.064-5.063.102-.93.625-7.129-.202-10.745-1.444-6.301-5.575-12.192-7.539-14.879-1.961-2.688-.718-5.477-.409-6.406.313-.93 8.475-3.82 13.643-13.323 5.169-9.502 9.27-29.296 8.382-34.192-.209-1.137-2.481 2.582-2.791 3.408-.31.827-2.007 18.602-10.449 28.2-5.992 6.817-15.086 9.913-17.15 9.912-2.068 0-9.814-3.62-14.047-3.622-9.093-.002-13.642 1.545-16.844 1.544-1.86-.001-5.989-1.035-5.989-1.035s-3.311-3.324-4.648-3.204c-.572.051-.571-.415-.571-.415s1.654-2.891 1.501-4.544c0 0 1.239 2.274 2.686 2.275 1.444 0 2.914-1.694 3.41-2.314.498-.619.991-2.912 1.736-3.223.743-.308 7.252-.246 7.253-4.895.001-2.045-.927-1.92-1.361-2.604-.433-.681-.682-1.795-1.61-2.603-.931-.806-1.394-.732-1.861-.993-2.106-1.178-5.886-7.378-8.366-7.378-2.478-.001-3.379 1.826-3.843 1.36-.465-.464-3.469-3.099-7.994-3.845-4.526-.745-7.686-.684-8.307-.809-.619-.124-1.61-2.17-2.786-2.171-3.535-.001-3.659 1.177-4.776 1.425-1.116.248-1.794-.704-3.594.122-3.1 1.425-3.659 3.036-4.34 3.284-.682.248-5.517.371-5.518 3.966-.001 3.594 2.725 4.959 3.281 6.261.559 1.301.806 6.819 3.966 6.82 3.162.001 3.659-2.355 3.659-2.355s-.701 7.262-.313 9.485c.493 2.851 1.856 5.333 1.856 6.137 0 .805-3.12 7.36-3.973 10.845-.853 3.487-1.475 9.376-1.862 10.614-.389 1.241-1.266 3.02-1.397 4.03-.311 2.402 2.55 14.723 2.549 17.512-.001 2.48-.314 12.785-.084 15.806.233 3.023 2.626 23.092 2.625 27.431-.002 4.34-.931 5.657-.932 7.283 0 1.627.773 3.1.773 4.262-.001 1.163-.621 4.494-1.319 5.346-.697.852-5.27 3.563-5.271 6.894-.002 3.332.541 4.184 1.394 4.184.853.001 1.936-.851 2.245-.773.31.077 1.396.775 2.325.775.931.001 1.938-.851 2.403-.928.465-.078 1.085.852 1.936.543.853-.31 2.326-1.937 2.326-3.564.001-1.627-.464-2.712-.463-5.037.001-2.323.895-6.391 1.087-6.585.197-.194 1.94-1.472 1.941-2.788 0-1.318-1.396-2.945-1.395-4.263 0-1.317 1.01-4.959 1.01-6.43.001-1.473.084-20.767.397-23.245.311-2.48 1.706-4.726 1.785-6.586.077-1.859-.62-4.03-.62-4.727.001-.697 2.714-1.858 4.573-1.858 1.86.001 6.584 2.715 7.591 4.42 1.008 1.705 2.089 5.811 2.168 6.973.078 1.163-.472 18.752-.705 22.626-.235 3.874-1.863 6.43-1.864 9.297s.541 4.572.541 5.657c-.001 1.085-.779 5.966-1.32 7.283-.544 1.317-3.876 5.578-3.877 8.676-.001 2.248 1.469 2.79 2.243 3.256.776.465 1.551-.465 2.17-.154.62.31.776 1.24 2.247 1.24 1.474.001 2.792-2.478 3.334-3.02.541-.542.695.077 1.317.078.62 0 1.549-2.014 1.55-3.254 0-1.239-.694-4.572-.693-7.748.001-3.178 1.991-8.911 2.511-13.56.517-4.648 2.075-27.892 2.385-30.578.313-2.686 1.551-4.753 1.551-6.096.001-1.342-1.548-2.272-1.547-3.512 0-1.24 4.943-1.649 6.2-1.961.206-.051.827.052.827.465-.002 4.701 9.964 18.962 9.963 22.061-.002 5.217-1.038 5.759-1.658 7.928-.619 2.17-1.785 7.36-2.56 9.22-.777 1.859-1.242 3.099-1.783 3.64-.543.542-1.571.023-2.17.31-1.784.851-3.488 3.331-3.489 5.267-.001 1.938.774 1.861 1.394 1.861.621 0 3.399.246 4.495-.851.426-.426.542-.36.748-.36.205 0 .723.671 1.289.671.569 0 3.361-.05 4.187-1.549.828-1.495.207-2.221.518-2.529.31-.31.594.387.981.001.387-.388-.309-4.03.313-4.65.619-.62 4.341-13.016 5.066-14.515.723-1.496 2.12-3.044 2.121-5.164.001-3.409-7.074-11.935-7.071-19.373.002-6.093 7.704-16.838 9.562-16.838 1.863.001 7.384 5.841 8.469 7.598.574.928 2.073 2.923 3.356 5.323 1.151 2.143 2.041 4.62 3.356 6.767 1.115 1.823 2.84 5.577 4.853 8.784 3.007 4.795 6.604 9.11 7.124 10.746.54 1.705.387 3.952.696 5.502.307 1.55 1.78 7.129 1.622 8.368-.154 1.24-.773 2.247-.93 3.41-.155 1.162.695 6.042 2.477 6.043.62 0 .853-.542 1.161-.542.312 0 .982 1.811 3.438 1.812" fill="#e87d24" fill-rule="nonzero"/></svg>