<?xml version="1.0" encoding="UTF-8" standalone="no"?><!DOCTYPE svg PUBLIC "-//W3C//DTD SVG 1.1//EN" "http://www.w3.org/Graphics/SVG/1.1/DTD/svg11.dtd"><svg width="100%" height="100%" viewBox="0 0 114 157" version="1.1" xmlns="http://www.w3.org/2000/svg" xmlns:xlink="http://www.w3.org/1999/xlink" xml:space="preserve" xmlns:serif="http://www.serif.com/" style="fill-rule:evenodd;clip-rule:evenodd;stroke-linejoin:round;stroke-miterlimit:1.41421;"><path d="M108.659,136.173c2.479,0.001 2.581,-1.135 3.2,-1.239c0.621,-0.104 1.241,-0.104 1.759,-0.517c0.516,-0.412 0.312,-3.512 -0.308,-4.649c-0.619,-1.137 -2.479,-3.305 -3.097,-5.063c-0.619,-1.757 -3.51,-10.436 -3.616,-11.677c-0.099,-1.239 0.209,-2.581 -0.098,-3.511c-0.31,-0.93 -2.377,-3.927 -2.998,-5.167c-0.616,-1.24 -1.131,-5.579 -1.856,-7.337c-0.72,-1.755 -2.579,-3.201 -2.786,-4.236c-0.207,-1.034 0.003,-6.613 -0.411,-7.955c-0.413,-1.342 -2.168,-4.132 -2.064,-5.063c0.102,-0.93 0.625,-7.129 -0.202,-10.745c-1.444,-6.301 -5.575,-12.192 -7.539,-14.879c-1.961,-2.688 -0.718,-5.477 -0.409,-6.406c0.313,-0.93 8.475,-3.82 13.643,-13.323c5.169,-9.502 9.27,-29.296 8.382,-34.192c-0.209,-1.137 -2.481,2.582 -2.791,3.408c-0.31,0.827 -2.007,18.602 -10.449,28.2c-5.992,6.817 -15.086,9.913 -17.15,9.912c-2.068,0 -9.814,-3.62 -14.047,-3.622c-9.093,-0.002 -13.642,1.545 -16.844,1.544c-1.86,-0.001 -5.989,-1.035 -5.989,-1.035c0,0 -3.311,-3.324 -4.648,-3.204c-0.572,0.051 -0.571,-0.415 -0.571,-0.415c0,0 1.654,-2.891 1.501,-4.544c0,0 1.239,2.274 2.686,2.275c1.444,0 2.914,-1.694 3.41,-2.314c0.498,-0.619 0.991,-2.912 1.736,-3.223c0.743,-0.308 7.252,-0.246 7.253,-4.895c0.001,-2.045 -0.927,-1.92 -1.361,-2.604c-0.433,-0.681 -0.682,-1.795 -1.61,-2.603c-0.931,-0.806 -1.394,-0.732 -1.861,-0.993c-2.106,-1.178 -5.886,-7.378 -8.366,-7.378c-2.478,-0.001 -3.379,1.826 -3.843,1.36c-0.465,-0.464 -3.469,-3.099 -7.994,-3.845c-4.526,-0.745 -7.686,-0.684 -8.307,-0.809c-0.619,-0.124 -1.61,-2.17 -2.786,-2.171c-3.535,-0.001 -3.659,1.177 -4.776,1.425c-1.116,0.248 -1.794,-0.704 -3.594,0.122c-3.1,1.425 -3.659,3.036 -4.34,3.284c-0.682,0.248 -5.517,0.371 -5.518,3.966c-0.001,3.594 2.725,4.959 3.281,6.261c0.559,1.301 0.806,6.819 3.966,6.82c3.162,0.001 3.659,-2.355 3.659,-2.355c0,0 -0.701,7.262 -0.313,9.485c0.493,2.851 1.856,5.333 1.856,6.137c0,0.805 -3.12,7.36 -3.973,10.845c-0.853,3.487 -1.475,9.376 -1.862,10.614c-0.389,1.241 -1.266,3.02 -1.397,4.03c-0.311,2.402 2.55,14.723 2.549,17.512c-0.001,2.48 -0.314,12.785 -0.084,15.806c0.233,3.023 2.626,23.092 2.625,27.431c-0.002,4.34 -0.931,5.657 -0.932,7.283c0,1.627 0.773,3.1 0.773,4.262c-0.001,1.163 -0.621,4.494 -1.319,5.346c-0.697,0.852 -5.27,3.563 -5.271,6.894c-0.002,3.332 0.541,4.184 1.394,4.184c0.853,0.001 1.936,-0.851 2.245,-0.773c0.31,0.077 1.396,0.775 2.325,0.775c0.931,0.001 1.938,-0.851 2.403,-0.928c0.465,-0.078 1.085,0.852 1.936,0.543c0.853,-0.31 2.326,-1.937 2.326,-3.564c0.001,-1.627 -0.464,-2.712 -0.463,-5.037c0.001,-2.323 0.895,-6.391 1.087,-6.585c0.197,-0.194 1.94,-1.472 1.941,-2.788c0,-1.318 -1.396,-2.945 -1.395,-4.263c0,-1.317 1.01,-4.959 1.01,-6.43c0.001,-1.473 0.084,-20.767 0.397,-23.245c0.311,-2.48 1.706,-4.726 1.785,-6.586c0.077,-1.859 -0.62,-4.03 -0.62,-4.727c0.001,-0.697 2.714,-1.858 4.573,-1.858c1.86,0.001 6.584,2.715 7.591,4.42c1.008,1.705 2.089,5.811 2.168,6.973c0.078,1.163 -0.472,18.752 -0.705,22.626c-0.235,3.874 -1.863,6.43 -1.864,9.297c-0.001,2.867 0.541,4.572 0.541,5.657c-0.001,1.085 -0.779,5.966 -1.32,7.283c-0.544,1.317 -3.876,5.578 -3.877,8.676c-0.001,2.248 1.469,2.79 2.243,3.256c0.776,0.465 1.551,-0.465 2.17,-0.154c0.62,0.31 0.776,1.24 2.247,1.24c1.474,0.001 2.792,-2.478 3.334,-3.02c0.541,-0.542 0.695,0.077 1.317,0.078c0.62,0 1.549,-2.014 1.55,-3.254c0,-1.239 -0.694,-4.572 -0.693,-7.748c0.001,-3.178 1.991,-8.911 2.511,-13.56c0.517,-4.648 2.075,-27.892 2.385,-30.578c0.313,-2.686 1.551,-4.753 1.551,-6.096c0.001,-1.342 -1.548,-2.272 -1.547,-3.512c0,-1.24 4.943,-1.649 6.2,-1.961c0.206,-0.051 0.827,0.052 0.827,0.465c-0.002,4.701 9.964,18.962 9.963,22.061c-0.002,5.217 -1.038,5.759 -1.658,7.928c-0.619,2.17 -1.785,7.36 -2.56,9.22c-0.777,1.859 -1.242,3.099 -1.783,3.64c-0.543,0.542 -1.571,0.023 -2.17,0.31c-1.784,0.851 -3.488,3.331 -3.489,5.267c-0.001,1.938 0.774,1.861 1.394,1.861c0.621,0 3.399,0.246 4.495,-0.851c0.426,-0.426 0.542,-0.36 0.748,-0.36c0.205,0 0.723,0.671 1.289,0.671c0.569,0 3.361,-0.05 4.187,-1.549c0.828,-1.495 0.207,-2.221 0.518,-2.529c0.31,-0.31 0.594,0.387 0.981,0.001c0.387,-0.388 -0.309,-4.03 0.313,-4.65c0.619,-0.62 4.341,-13.016 5.066,-14.515c0.723,-1.496 2.12,-3.044 2.121,-5.164c0.001,-3.409 -7.074,-11.935 -7.071,-19.373c0.002,-6.093 7.704,-16.838 9.562,-16.838c1.863,0.001 7.384,5.841 8.469,7.598c0.574,0.928 2.073,2.923 3.356,5.323c1.151,2.143 2.041,4.62 3.356,6.767c1.115,1.823 2.84,5.577 4.853,8.784c3.007,4.795 6.604,9.11 7.124,10.746c0.54,1.705 0.387,3.952 0.696,5.502c0.307,1.55 1.78,7.129 1.622,8.368c-0.154,1.24 -0.773,2.247 -0.93,3.41c-0.155,1.162 0.695,6.042 2.477,6.043c0.62,0 0.853,-0.542 1.161,-0.542c0.312,0 0.982,1.811 3.438,1.812" style="fill:#e87d24;fill-rule:nonzero;"/></svg>