<?xml version="1.0" encoding="UTF-8" standalone="no"?><!DOCTYPE svg PUBLIC "-//W3C//DTD SVG 1.1//EN" "http://www.w3.org/Graphics/SVG/1.1/DTD/svg11.dtd"><svg width="100%" height="100%" viewBox="0 0 136 120" version="1.1" xmlns="http://www.w3.org/2000/svg" xmlns:xlink="http://www.w3.org/1999/xlink" xml:space="preserve" xmlns:serif="http://www.serif.com/" style="fill-rule:evenodd;clip-rule:evenodd;stroke-linejoin:round;stroke-miterlimit:1.41421;"><path d="M126.927,107.342c2.396,0.001 3.995,-0.131 5.193,-0.93c1.2,-0.798 2.931,-3.461 2.932,-5.326c0.001,-1.862 -2.396,-5.06 -2.927,-9.188c-0.53,-4.129 0.271,-9.989 -0.393,-12.385c-0.665,-2.398 -2.663,-2.665 -3.861,-6.261c-1.197,-3.597 -0.258,-18.909 -1.456,-24.638c-1.195,-5.726 -5.232,-10.7 -4.611,-11.231c0.621,-0.532 3.195,1.599 4.261,2.132c1.064,0.533 5.326,0.445 5.327,-0.531c0,-0.975 -2.894,-1.029 -5.149,-2.309c-3.284,-1.866 -2.35,-4.751 -3.726,-6.128c-1.376,-1.376 -2.263,-2.352 -3.372,-3.462c-1.11,-1.111 -2.573,-3.287 -4.349,-3.82c-1.775,-0.534 -3.196,-0.446 -5.326,-1.068c-2.131,-0.622 -7.102,-3.376 -15.624,-3.378c-8.523,-0.003 -17.491,6.828 -25.394,6.825c-6.391,-0.003 -12.074,-2.046 -13.226,-2.845c-1.154,-0.8 -6.5,-13.508 -11.27,-15.009c-3.107,-0.977 -4.147,-0.251 -4.795,-0.445c-1.774,-0.533 -4.616,-2.399 -6.124,-2.844c-1.509,-0.444 -5.858,-1.066 -6.835,-1.866c-0.976,-0.799 -2.13,-2.576 -3.285,-2.576c-1.153,-0.001 -3.639,-0.179 -5.059,0.086c-1.421,0.266 -2.931,1.421 -3.286,1.509c-0.355,0.087 -3.399,2.119 -3.907,3.726c-0.533,1.686 0.705,3.591 0.087,4.883c-0.978,2.042 -5.062,4.971 -5.063,6.835c-0.001,1.863 0.974,5.505 0.441,6.836c-0.533,1.332 -2.043,1.684 -2.843,3.105c-0.798,1.42 -3.286,4.616 -3.287,8.346c-0.001,3.728 1.677,4.198 2.485,4.795c2.041,1.509 3.195,3.906 4.703,4.173c1.509,0.267 1.596,-0.449 2.397,-0.087c1.775,0.799 4.526,4.796 6.212,4.796c1.687,0.001 2.931,-0.62 2.93,0.267c0,0.888 -0.09,1.954 0.088,3.374c0.176,1.42 0.442,2.663 0.442,3.552c0,0.887 -0.178,2.309 -0.09,2.841c0.089,0.533 0.8,0.62 0.799,1.242c0,0.622 -0.709,10.224 -0.271,12.696c0.709,3.995 3.369,10.389 3.901,12.608c0.532,2.22 0.532,4.349 0.975,5.77c0.442,1.422 1.241,2.31 1.241,3.108c0,0.8 -0.933,3.862 -1.689,4.617c-0.755,0.753 -3.329,1.019 -3.995,1.685c-0.667,0.666 -5.062,3.638 -5.063,5.947c0,2.308 2.218,1.777 3.55,2.132c1.333,0.354 2.664,1.154 3.374,1.155c0.71,0 2.129,-1.065 2.751,-1.065c0.624,0 2.308,0.356 2.665,0.001c0.355,-0.355 4.883,-2.751 5.328,-3.814c0.444,-1.065 0.445,-4.174 0.446,-5.772c0,-1.598 -0.088,-2.929 0.356,-4.261c0.445,-1.331 1.422,-1.419 1.422,-2.839c0.001,-1.422 -0.264,-2.042 -0.797,-4.795c-0.532,-2.754 -0.44,-10.033 -0.44,-11.541c0.001,-1.511 -0.707,-4.085 0.18,-4.084c0.887,0 12.605,6.663 19.618,6.665c2.93,0.001 7.458,-1.151 8.523,-1.151c1.065,0 2.396,3.376 2.661,5.15c0.266,1.774 -0.003,7.457 -0.003,8.699c-0.001,1.244 -1.6,5.238 -1.6,6.658c-0.001,1.421 0.264,6.037 0.264,6.925c-0.001,3.108 -4.264,6.124 -4.265,9.499c-0.001,3.374 1.061,5.238 2.838,5.239c1.775,0.001 4.705,-0.53 5.859,-0.974c1.156,-0.445 3.11,-0.62 3.553,-1.066c0.443,-0.444 2.931,-2.04 2.931,-3.637c0.001,-1.599 -1.954,-1.953 -1.953,-3.552c0.001,-1.599 -0.443,-3.02 -0.442,-5.682c0.001,-2.664 6.489,-19.796 6.491,-25.389c0.001,-2.308 -1.419,-5.416 -0.708,-7.192c0.711,-1.774 2.576,-2.305 3.73,-1.951c1.154,0.356 0.32,1.464 0.62,2.664c0.621,2.486 3.992,7.724 4.968,10.211c0.976,2.486 -0.474,7.676 -1.868,9.765c-2.131,3.195 -10.655,4.612 -10.656,6.388c-0.001,1.776 3.208,4.182 5.592,4.442c4.083,0.445 4.884,-1.686 6.57,-1.596c1.687,0.089 1.687,-0.266 2.308,-0.888c0.622,-0.621 1.6,-4.171 2.133,-5.858c0.533,-1.686 5.953,-9.763 5.954,-12.96c0.001,-2.307 -2.783,-3.473 -3.638,-8.613c-0.619,-3.728 1.338,-12.517 3.113,-14.114c1.777,-1.598 4.617,-1.596 6.304,-1.596c1.688,0.001 5.539,7.894 8.075,11.278c3.461,4.618 7.276,7.46 9.495,10.925c2.219,3.462 1.331,3.196 2.306,5.061c0.977,1.865 1.686,3.729 1.686,4.084c0,0.354 -0.179,3.285 -0.09,3.905c0.088,0.623 0.887,2.398 0.887,2.398c0,0 -1.334,6.392 -1.335,8.077c0,1.688 1.952,3.642 3.106,3.642" style="fill:#e87d24;fill-rule:nonzero;"/></svg>