<svg clip-rule="evenodd" fill-rule="evenodd" stroke-linejoin="round" stroke-miterlimit="1.414" viewBox="0 0 136 120" xmlns="http://www.w3.org/2000/svg"><path d="M126.93 107.34c2.396.001 3.995-.131 5.193-.93 1.2-.798 2.931-3.461 2.932-5.326.001-1.862-2.396-5.06-2.927-9.188-.53-4.129.271-9.989-.393-12.385-.665-2.398-2.663-2.665-3.861-6.261-1.197-3.597-.258-18.909-1.456-24.638-1.195-5.726-5.232-10.7-4.611-11.231.621-.532 3.195 1.599 4.261 2.132 1.064.533 5.326.445 5.327-.531 0-.975-2.894-1.029-5.149-2.309-3.284-1.866-2.35-4.751-3.726-6.128-1.376-1.376-2.263-2.352-3.372-3.462-1.11-1.111-2.573-3.287-4.349-3.82-1.775-.534-3.196-.446-5.326-1.068-2.131-.622-7.102-3.376-15.624-3.378-8.523-.003-17.491 6.828-25.394 6.825-6.391-.003-12.074-2.046-13.226-2.845-1.154-.8-6.5-13.508-11.27-15.009-3.107-.977-4.147-.251-4.795-.445-1.774-.533-4.616-2.399-6.124-2.844-1.509-.444-5.858-1.066-6.835-1.866-.976-.799-2.13-2.576-3.285-2.576-1.153-.001-3.639-.179-5.059.086-1.421.266-2.931 1.421-3.286 1.509-.355.087-3.399 2.119-3.907 3.726-.533 1.686.705 3.591.087 4.883-.978 2.042-5.062 4.971-5.063 6.835-.001 1.863.974 5.505.441 6.836-.533 1.332-2.043 1.684-2.843 3.105-.798 1.42-3.286 4.616-3.287 8.346-.001 3.728 1.677 4.198 2.485 4.795 2.041 1.509 3.195 3.906 4.703 4.173 1.509.267 1.596-.449 2.397-.087 1.775.799 4.526 4.796 6.212 4.796 1.687.001 2.931-.62 2.93.267 0 .888-.09 1.954.088 3.374.176 1.42.442 2.663.442 3.552 0 .887-.178 2.309-.09 2.841.089.533.8.62.799 1.242 0 .622-.709 10.224-.271 12.696.709 3.995 3.369 10.389 3.901 12.608.532 2.22.532 4.349.975 5.77.442 1.422 1.241 2.31 1.241 3.108 0 .8-.933 3.862-1.689 4.617-.755.753-3.329 1.019-3.995 1.685-.667.666-5.062 3.638-5.063 5.947 0 2.308 2.218 1.777 3.55 2.132 1.333.354 2.664 1.154 3.374 1.155.71 0 2.129-1.065 2.751-1.065.624 0 2.308.356 2.665.001.355-.355 4.883-2.751 5.328-3.814.444-1.065.445-4.174.446-5.772 0-1.598-.088-2.929.356-4.261.445-1.331 1.422-1.419 1.422-2.839.001-1.422-.264-2.042-.797-4.795-.532-2.754-.44-10.033-.44-11.541.001-1.511-.707-4.085.18-4.084.887 0 12.605 6.663 19.618 6.665 2.93.001 7.458-1.151 8.523-1.151s2.396 3.376 2.661 5.15c.266 1.774-.003 7.457-.003 8.699-.001 1.244-1.6 5.238-1.6 6.658-.001 1.421.264 6.037.264 6.925-.001 3.108-4.264 6.124-4.265 9.499-.001 3.374 1.061 5.238 2.838 5.239 1.775.001 4.705-.53 5.859-.974 1.156-.445 3.11-.62 3.553-1.066.443-.444 2.931-2.04 2.931-3.637.001-1.599-1.954-1.953-1.953-3.552s-.443-3.02-.442-5.682c.001-2.664 6.489-19.796 6.491-25.389.001-2.308-1.419-5.416-.708-7.192.711-1.774 2.576-2.305 3.73-1.951 1.154.356.32 1.464.62 2.664.621 2.486 3.992 7.724 4.968 10.211.976 2.486-.474 7.676-1.868 9.765-2.131 3.195-10.655 4.612-10.656 6.388s3.208 4.182 5.592 4.442c4.083.445 4.884-1.686 6.57-1.596 1.687.089 1.687-.266 2.308-.888.622-.621 1.6-4.171 2.133-5.858.533-1.686 5.953-9.763 5.954-12.96.001-2.307-2.783-3.473-3.638-8.613-.619-3.728 1.338-12.517 3.113-14.114 1.777-1.598 4.617-1.596 6.304-1.596 1.688.001 5.539 7.894 8.075 11.278 3.461 4.618 7.276 7.46 9.495 10.925 2.219 3.462 1.331 3.196 2.306 5.061.977 1.865 1.686 3.729 1.686 4.084 0 .354-.179 3.285-.09 3.905.088.623.887 2.398.887 2.398s-1.334 6.392-1.335 8.077c0 1.688 1.952 3.642 3.106 3.642" fill="#e87d24" fill-rule="nonzero"/></svg>