<svg clip-rule="evenodd" fill-rule="evenodd" stroke-linejoin="round" stroke-miterlimit="1.414" viewBox="0 0 120 100" width="120" height="100" xmlns="http://www.w3.org/2000/svg"><path d="M29.926 99.97c-2.709 0-7.094-3.676-9.609-4.127-2.516-.451-7.874.238-9.803-.258-2.751-.71-5.998-3.548-7.03-5.482C2.451 88.168 0 80.365 0 74.882c0-5.482 2.065-6.901 2.194-8.836.128-1.934 2.922-7.269 4.579-8.836 8.32-7.868 24.056-15.092 34.053-17.801 9.997-2.708 10.32-1.87 14.447-3.031 4.128-1.161 16.253-8.448 17.156-10.06.902-1.613-.452-3.29 0-4.579.451-1.29 1.676-2.387 1.999-3.484.322-1.096.517-3.999 1.677-5.804 1.161-1.806 2.322-2.516 3.289-4.256.968-1.742 1.483-4.579 3.548-5.934C85.005.907 89.906-.061 91.905.003c2 .066 4.838 1.161 5.613 1.484.773.323 4.197 2.046 4.966 2.773 1.161 1.097 1.805 4.064 3.031 4.837 1.224.774 5.288 2.322 6.385 3.225 1.096.903 7.868 5.224 7.868 6.579 0 1.354-1.226 1.741-1.419 2.128-.194.386-4.45 4.965-6.449 4.965s-2.903-1.031-6.578-1.031c-3.677 0-6.451.709-6.902 1.87s0 3.87.451 5.095c.451 1.226 1.332 7.869 1.332 11.223 0 12.06-9.715 19.304-9.715 22.4 0 1.807-1.033 4.472-1.12 5.16-.084.689-.773 2.579-.773 3.44 0 .86.602 3.783 1.463 3.783.858 0 2.02-.902 2.58-.343.559.558 2.493.858 3.009 2.492.515 1.635-.43 5.074-1.978 5.074s-6.708-.085-7.396-.773c-.687-.688-1.848-2.623-3.096-3.87-1.247-1.246-2.493-3.354-2.58-4.128 0 0-1.116.688-1.116 2.322s.729 2.709 1.374 3.354 1.935.559 2.58 1.205c.645.644 1.763 2.019 2.322 2.579.559.559 2.064.774 1.634 1.892-.429 1.117-2.151 1.633-2.666 1.633-.516 0-1.806-.257-2.064 0-.258.258-1.461 1.033-2.751.861s-2.235-.861-3.87-1.033c-1.635-.171-2.322-.172-3.611-1.633-1.29-1.462-.604-4.472-1.29-7.052a124.718 124.718 0 0 0-1.635-5.59c-.171-.516-3.009.259-7.739.259-4.729 0-17.714-1.893-19.176-.517-1.462 1.377-4.214 2.323-4.214 3.354 0 1.032 1.806.344 3.869 1.032 2.065.689 4.816 2.236 4.645 3.01-.172.774-1.806 2.236-4.472 2.58s-4.387-.431-6.364-.431-3.096-.258-3.096.345c0 .601 6.708 1.29 5.247 3.353-1.464 2.065-3.096 1.033-3.87 1.892-.773.86-2.237.775-.174 2.149 2.065 1.377 6.795 2.839 6.708 4.128 0 0-4.765-.872-3.783.604.171.258 1.204.686 1.376 1.461 0 0-3.955-.861-5.675-.344-1.719.516-2.86 2.171-2.86 2.171" fill="#9ba7b0" fill-rule="nonzero"/></svg>
