<?xml version="1.0" encoding="UTF-8" standalone="no"?><!DOCTYPE svg PUBLIC "-//W3C//DTD SVG 1.1//EN" "http://www.w3.org/Graphics/SVG/1.1/DTD/svg11.dtd"><svg width="100%" height="100%" viewBox="0 0 120 100" version="1.1" xmlns="http://www.w3.org/2000/svg" xmlns:xlink="http://www.w3.org/1999/xlink" xml:space="preserve" xmlns:serif="http://www.serif.com/" style="fill-rule:evenodd;clip-rule:evenodd;stroke-linejoin:round;stroke-miterlimit:1.41421;"><path d="M29.926,99.97c-2.709,0 -7.094,-3.676 -9.609,-4.127c-2.516,-0.451 -7.874,0.238 -9.803,-0.258c-2.751,-0.71 -5.998,-3.548 -7.03,-5.482c-1.033,-1.935 -3.484,-9.738 -3.484,-15.221c0,-5.482 2.065,-6.901 2.194,-8.836c0.128,-1.934 2.922,-7.269 4.579,-8.836c8.32,-7.868 24.056,-15.092 34.053,-17.801c9.997,-2.708 10.32,-1.87 14.447,-3.031c4.128,-1.161 16.253,-8.448 17.156,-10.06c0.902,-1.613 -0.452,-3.29 0,-4.579c0.451,-1.29 1.676,-2.387 1.999,-3.484c0.322,-1.096 0.517,-3.999 1.677,-5.804c1.161,-1.806 2.322,-2.516 3.289,-4.256c0.968,-1.742 1.483,-4.579 3.548,-5.934c2.063,-1.354 6.964,-2.322 8.963,-2.258c2,0.066 4.838,1.161 5.613,1.484c0.773,0.323 4.197,2.046 4.966,2.773c1.161,1.097 1.805,4.064 3.031,4.837c1.224,0.774 5.288,2.322 6.385,3.225c1.096,0.903 7.868,5.224 7.868,6.579c0,1.354 -1.226,1.741 -1.419,2.128c-0.194,0.386 -4.45,4.965 -6.449,4.965c-1.999,0 -2.903,-1.031 -6.578,-1.031c-3.677,0 -6.451,0.709 -6.902,1.87c-0.451,1.161 0,3.87 0.451,5.095c0.451,1.226 1.332,7.869 1.332,11.223c0,12.06 -9.715,19.304 -9.715,22.4c0,1.807 -1.033,4.472 -1.12,5.16c-0.084,0.689 -0.773,2.579 -0.773,3.44c0,0.86 0.602,3.783 1.463,3.783c0.858,0 2.02,-0.902 2.58,-0.343c0.559,0.558 2.493,0.858 3.009,2.492c0.515,1.635 -0.43,5.074 -1.978,5.074c-1.548,0 -6.708,-0.085 -7.396,-0.773c-0.687,-0.688 -1.848,-2.623 -3.096,-3.87c-1.247,-1.246 -2.493,-3.354 -2.58,-4.128c0,0 -1.116,0.688 -1.116,2.322c0,1.634 0.729,2.709 1.374,3.354c0.645,0.645 1.935,0.559 2.58,1.205c0.645,0.644 1.763,2.019 2.322,2.579c0.559,0.559 2.064,0.774 1.634,1.892c-0.429,1.117 -2.151,1.633 -2.666,1.633c-0.516,0 -1.806,-0.257 -2.064,0c-0.258,0.258 -1.461,1.033 -2.751,0.861c-1.29,-0.172 -2.235,-0.861 -3.87,-1.033c-1.635,-0.171 -2.322,-0.172 -3.611,-1.633c-1.29,-1.462 -0.604,-4.472 -1.29,-7.052c-0.688,-2.58 -1.463,-5.073 -1.635,-5.59c-0.171,-0.516 -3.009,0.259 -7.739,0.259c-4.729,0 -17.714,-1.893 -19.176,-0.517c-1.462,1.377 -4.214,2.323 -4.214,3.354c0,1.032 1.806,0.344 3.869,1.032c2.065,0.689 4.816,2.236 4.645,3.01c-0.172,0.774 -1.806,2.236 -4.472,2.58c-2.666,0.344 -4.387,-0.431 -6.364,-0.431c-1.977,0 -3.096,-0.258 -3.096,0.345c0,0.601 6.708,1.29 5.247,3.353c-1.464,2.065 -3.096,1.033 -3.87,1.892c-0.773,0.86 -2.237,0.775 -0.174,2.149c2.065,1.377 6.795,2.839 6.708,4.128c0,0 -4.765,-0.872 -3.783,0.604c0.171,0.258 1.204,0.686 1.376,1.461c0,0 -3.955,-0.861 -5.675,-0.344c-1.719,0.516 -2.86,2.171 -2.86,2.171" style="fill:#9ba7b0;fill-rule:nonzero;"/></svg>