<svg viewBox="0 0 26 28" xmlns="http://www.w3.org/2000/svg"><path d="M20 21c0-.547-.453-1-1-1s-1 .453-1 1 .453 1 1 1 1-.453 1-1zm4 0c0-.547-.453-1-1-1s-1 .453-1 1 .453 1 1 1 1-.453 1-1zm2-3.5v5a1.5 1.5 0 0 1-1.5 1.5h-23A1.5 1.5 0 0 1 0 22.5v-5A1.5 1.5 0 0 1 1.5 16h7.266l2.109 2.125c.578.562 1.328.875 2.125.875s1.547-.313 2.125-.875L17.25 16h7.25a1.5 1.5 0 0 1 1.5 1.5zm-5.078-8.891a.984.984 0 0 1-.219 1.094l-7 7c-.187.203-.453.297-.703.297s-.516-.094-.703-.297l-7-7a.984.984 0 0 1-.219-1.094C5.234 8.25 5.594 8 6 8h4V1c0-.547.453-1 1-1h4c.547 0 1 .453 1 1v7h4c.406 0 .766.25.922.609z" fill="#929292"/></svg>