<?xml version="1.0" encoding="utf-8"?>
<!-- Generator: Adobe Illustrator 19.1.0, SVG Export Plug-In . SVG Version: 6.00 Build 0)  -->
<svg version="1.1" id="Layer_1" xmlns="http://www.w3.org/2000/svg" xmlns:xlink="http://www.w3.org/1999/xlink" x="0px" y="0px"
	 viewBox="0 0 35.3 35.3" style="enable-background:new 0 0 35.3 35.3;" xml:space="preserve">
<style type="text/css">
	.st0{fill-rule:evenodd;clip-rule:evenodd;fill:#000;}
</style>
<g id="Move_Down_1">
	<g>
		<path class="st0" d="M27.1,6.6h-4.8c-0.4,0-0.7,0.3-0.7,0.7v1.4c0,0.4,0.3,0.7,0.7,0.7h3.4v16.5H9.2V9.4h3.4
			c0.4,0,0.7-0.3,0.7-0.7V7.3c0-0.4-0.3-0.7-0.7-0.7H7.9C7.1,6.6,6.5,7.3,6.5,8v19.2c0,0.8,0.6,1.4,1.4,1.4h19.2
			c0.8,0,1.4-0.6,1.4-1.4V8C28.5,7.3,27.9,6.6,27.1,6.6z"/>
		<path class="st0" d="M17,20.2c0.2,0.3,0.6,0.3,0.9,0l3.6-4.6c0.2-0.3,0.1-0.7-0.3-0.7h-2.3V7.3c0-0.4-0.3-0.7-0.7-0.7h-1.4
			c-0.4,0-0.7,0.3-0.7,0.7v7.6h-2.3c-0.4,0-0.5,0.4-0.3,0.7L17,20.2z"/>
	</g>
</g>
</svg>
