<svg viewBox="0 0 57 47" width="57" height="47" xmlns="http://www.w3.org/2000/svg" fill-rule="evenodd" clip-rule="evenodd" stroke-linejoin="round" stroke-miterlimit="1.414"><path d="M33.549 26.875l-3.337 3.337a2.58 2.58 0 0 1-3.649 0l-3.337-3.337L8.803 41.299l39.161-.008-14.415-14.416zM51.613 8.811L37.198 23.226 51.612 37.64l.001-28.829zM19.576 23.226L5.162 8.812l-.001 28.829 14.415-14.415zm8.811 1.596L47.984 5.153l-39.185.008 19.588 19.661zM5.164 0h46.447c2.851 0 5.164 2.304 5.164 5.148v36.155c0 2.843-2.314 5.148-5.164 5.148H5.164C2.312 46.451 0 44.148 0 41.303V5.148C0 2.305 2.314 0 5.164 0" fill="#fff"/></svg>
