<?xml version="1.0" encoding="UTF-8" standalone="no"?><!DOCTYPE svg PUBLIC "-//W3C//DTD SVG 1.1//EN"
  "http://www.w3.org/Graphics/SVG/1.1/DTD/svg11.dtd">
<svg width="100%" height="100%" viewBox="0 0 33 25" version="1.1" xmlns="http://www.w3.org/2000/svg" xmlns:xlink="http://www.w3.org/1999/xlink" xml:space="preserve" xmlns:serif="http://www.serif.com/" style="fill-rule:evenodd;clip-rule:evenodd;stroke-linejoin:round;stroke-miterlimit:1.41421;"><path d="M0,7.513l0,8.656c0,0.562 0.355,0.732 0.793,0.381l5.094,-4.074c0.438,-0.351 0.438,-0.918 0,-1.27l-5.094,-4.074c-0.438,-0.35 -0.793,-0.181 -0.793,0.381m2.03,-7.513c-1.116,0 -2.03,1.139 -2.03,2.031l15.366,12.231c0.441,0.35 1.153,0.352 1.592,0.004l15.526,-12.235c0,-0.892 -0.913,-2.031 -2.03,-2.031l-28.424,0Zm24.569,12.476l5.092,4.074c0.439,0.351 0.793,0.181 0.793,-0.381l0,-8.656c0,-0.562 -0.354,-0.731 -0.793,-0.381l-5.092,4.074c-0.439,0.352 -0.439,0.919 0,1.27m-4.47,2.308l-5.094,4.072c-0.437,0.351 -1.147,0.351 -1.586,0l-5.093,-4.072c-0.438,-0.351 -1.148,-0.351 -1.586,-0.002l-8.77,7.001l0,0.55c0,0.893 0.914,2.031 2.03,2.031l28.424,0c1.117,0 2.03,-1.138 2.03,-2.031l0,-0.55l-8.768,-7.001c-0.439,-0.349 -1.149,-0.349 -1.587,0.002" style="fill:#f47c22;"/></svg>
