<!-- Generated by IcoMoon.io -->
<svg version="1.1" xmlns="http://www.w3.org/2000/svg" width="16" height="16" viewBox="0 0 16 16">
<style type="text/css">
	.st0{fill:#bac6ce;}
</style>
<path class="st0" d="M14.998 3c0.001 0.001 0.001 0.001 0.002 0.002v9.996c-0.001 0.001-0.001 0.001-0.002 0.002h-13.996c-0.001-0.001-0.001-0.001-0.002-0.002v-9.996c0.001-0.001 0.001-0.001 0.002-0.002h13.996zM15 2h-14c-0.55 0-1 0.45-1 1v10c0 0.55 0.45 1 1 1h14c0.55 0 1-0.45 1-1v-10c0-0.55-0.45-1-1-1v0z"></path>
<path class="st0" d="M5.831 9.773l-3 2.182c-0.1 0.073-0.216 0.108-0.33 0.108-0.174 0-0.345-0.080-0.455-0.232-0.183-0.251-0.127-0.603 0.124-0.786l3-2.182c0.251-0.183 0.603-0.127 0.786 0.124s0.127 0.603-0.124 0.786z"></path>
<path class="st0" d="M13.955 11.831c-0.11 0.151-0.282 0.232-0.455 0.232-0.115 0-0.23-0.035-0.33-0.108l-3-2.182c-0.251-0.183-0.307-0.534-0.124-0.786s0.534-0.307 0.786-0.124l3 2.182c0.251 0.183 0.307 0.535 0.124 0.786z"></path>
<path class="st0" d="M13.831 4.955l-5.5 4c-0.099 0.072-0.215 0.108-0.331 0.108s-0.232-0.036-0.331-0.108l-5.5-4c-0.251-0.183-0.307-0.534-0.124-0.786s0.535-0.307 0.786-0.124l5.169 3.759 5.169-3.759c0.251-0.183 0.603-0.127 0.786 0.124s0.127 0.603-0.124 0.786v0z"></path>
</svg>
