<svg xmlns="http://www.w3.org/2000/svg" width="16" height="16"><style>.st0{fill:#bac6ce}</style><path class="st0" d="M14.998 3l.002.002v9.996l-.002.002H1.002L1 12.998V3.002L1.002 3h13.996zM15 2H1c-.55 0-1 .45-1 1v10c0 .55.45 1 1 1h14c.55 0 1-.45 1-1V3c0-.55-.45-1-1-1z"/><path class="st0" d="M5.831 9.773l-3 2.182a.559.559 0 0 1-.785-.124.563.563 0 0 1 .124-.786l3-2.182a.563.563 0 0 1 .662.91zM13.955 11.831a.563.563 0 0 1-.785.124l-3-2.182a.563.563 0 0 1 .662-.91l3 2.182a.563.563 0 0 1 .124.786zM13.831 4.955l-5.5 4a.562.562 0 0 1-.662 0l-5.5-4a.563.563 0 0 1 .662-.91L8 7.804l5.169-3.759a.563.563 0 0 1 .662.91z"/></svg>