<svg viewBox="0 0 33 25" width="33" height="25" xmlns="http://www.w3.org/2000/svg" fill-rule="evenodd" clip-rule="evenodd" stroke-linejoin="round" stroke-miterlimit="1.414"><path d="M0 7.513v8.656c0 .562.355.732.793.381l5.094-4.074c.438-.351.438-.918 0-1.27L.793 7.132C.355 6.782 0 6.951 0 7.513M2.03 0C.914 0 0 1.139 0 2.031l15.366 12.231c.441.35 1.153.352 1.592.004L32.484 2.031c0-.892-.913-2.031-2.03-2.031H2.03zm24.569 12.476l5.092 4.074c.439.351.793.181.793-.381V7.513c0-.562-.354-.731-.793-.381l-5.092 4.074c-.439.352-.439.919 0 1.27m-4.47 2.308l-5.094 4.072c-.437.351-1.147.351-1.586 0l-5.093-4.072c-.438-.351-1.148-.351-1.586-.002L0 21.783v.55c0 .893.914 2.031 2.03 2.031h28.424c1.117 0 2.03-1.138 2.03-2.031v-.55l-8.768-7.001c-.439-.349-1.149-.349-1.587.002" fill="#f47c22"/></svg>
