<?xml version="1.0" encoding="UTF-8" standalone="no"?><!DOCTYPE svg PUBLIC "-//W3C//DTD SVG 1.1//EN" "http://www.w3.org/Graphics/SVG/1.1/DTD/svg11.dtd"><svg width="100%" height="100%" viewBox="0 0 50 50" version="1.1" xmlns="http://www.w3.org/2000/svg" xmlns:xlink="http://www.w3.org/1999/xlink" xml:space="preserve" xmlns:serif="http://www.serif.com/" style="fill-rule:evenodd;clip-rule:evenodd;stroke-linejoin:round;stroke-miterlimit:1.41421;"><path d="M14.498,12.75l20.564,0l0,-7.814l-20.564,0l0,7.814Zm25.5,25.5l4.627,0l0,-20.565l-39.69,0l0,20.565l4.627,0l0,-6.375l30.436,0l0,6.375Zm-25.5,6.375l20.564,0l0,-7.814l-20.564,0l0,7.814Zm-2.468,4.935c-1.36,0 -2.468,-1.107 -2.468,-2.468l0,-3.907l-7.095,0c-1.36,0 -2.467,-1.107 -2.467,-2.468l0,-25.5c0,-1.36 1.107,-2.467 2.467,-2.467l7.095,0l0,-10.283c0,-1.36 1.108,-2.467 2.468,-2.467l25.5,0c1.36,0 2.468,1.107 2.468,2.467l0,10.283l7.094,0c1.361,0 2.468,1.107 2.468,2.467l0,25.5c0,1.361 -1.107,2.468 -2.468,2.468l-7.094,0l0,3.907c0,1.361 -1.108,2.468 -2.468,2.468l-25.5,0Z" style="fill:#fff;fill-rule:nonzero;"/></svg>