<svg viewBox="0 0 50 50" xmlns="http://www.w3.org/2000/svg" fill-rule="evenodd" clip-rule="evenodd" stroke-linejoin="round" stroke-miterlimit="1.414"><path d="M14.498 12.75h20.564V4.936H14.498v7.814zm25.5 25.5h4.627V17.685H4.935V38.25h4.627v-6.375h30.436v6.375zm-25.5 6.375h20.564v-7.814H14.498v7.814zM12.03 49.56a2.471 2.471 0 0 1-2.468-2.468v-3.907H2.467A2.47 2.47 0 0 1 0 40.717v-25.5a2.47 2.47 0 0 1 2.467-2.467h7.095V2.467A2.471 2.471 0 0 1 12.03 0h25.5a2.471 2.471 0 0 1 2.468 2.467V12.75h7.094a2.47 2.47 0 0 1 2.468 2.467v25.5a2.47 2.47 0 0 1-2.468 2.468h-7.094v3.907a2.471 2.471 0 0 1-2.468 2.468h-25.5z" fill="#fff" fill-rule="nonzero"/></svg>