<?xml version="1.0" encoding="UTF-8" standalone="no"?><!DOCTYPE svg PUBLIC "-//W3C//DTD SVG 1.1//EN" "http://www.w3.org/Graphics/SVG/1.1/DTD/svg11.dtd"><svg width="100%" height="100%" viewBox="0 0 34 34" version="1.1" xmlns="http://www.w3.org/2000/svg" xmlns:xlink="http://www.w3.org/1999/xlink" xml:space="preserve" xmlns:serif="http://www.serif.com/" style="fill-rule:evenodd;clip-rule:evenodd;stroke-linejoin:round;stroke-miterlimit:1.41421;"><path d="M26.867,18.6l-4.133,0l0,-4.134l4.133,0l0,4.134Zm-4.132,10.333l-12.4,0l0,-4.133l12.4,0l0,4.133Zm-2.068,-10.333l-4.133,0l0,-4.134l4.133,0l0,4.134Zm-10.333,-14.468l12.4,0l0,4.134l-12.4,0l0,-4.134Zm20.667,4.134l-4.134,0l0,-6.2c0,-1.143 -0.923,-2.066 -2.066,-2.066l-16.534,0c-1.142,0 -2.067,0.923 -2.067,2.066l0,6.2l-4.133,0c-1.142,0 -2.067,0.925 -2.067,2.067l0,16.534c0,1.142 0.925,2.066 2.067,2.066l4.133,0l0,2.068c0,1.141 0.925,2.066 2.067,2.066l16.534,0c1.143,0 2.066,-0.925 2.066,-2.066l0,-2.068l4.134,0c1.143,0 2.067,-0.924 2.067,-2.066l0,-16.534c0,-1.142 -0.924,-2.067 -2.067,-2.067" style="fill:#f47c22;fill-rule:nonzero;"/></svg>