<?xml version="1.0" encoding="UTF-8" standalone="no"?><!DOCTYPE svg PUBLIC "-//W3C//DTD SVG 1.1//EN" "http://www.w3.org/Graphics/SVG/1.1/DTD/svg11.dtd"><svg width="100%" height="100%" viewBox="0 0 28 28" version="1.1" xmlns="http://www.w3.org/2000/svg" xmlns:xlink="http://www.w3.org/1999/xlink" xml:space="preserve" xmlns:serif="http://www.serif.com/" style="fill-rule:evenodd;clip-rule:evenodd;stroke-linejoin:round;stroke-miterlimit:1.41421;"><path d="M20.211,20.211c-0.338,0.337 -0.779,0.506 -1.221,0.506c-0.442,0 -0.883,-0.169 -1.22,-0.506l-5.685,-5.685l0,-7.62c0,-0.954 0.772,-1.726 1.726,-1.726c0.954,0 1.726,0.772 1.726,1.726l0,6.191l4.674,4.673c0.674,0.674 0.674,1.766 0,2.441m-6.4,-20.211c-7.63,0 -13.811,6.181 -13.811,13.812c0,7.629 6.181,13.81 13.811,13.81c7.63,0 13.811,-6.181 13.811,-13.81c0,-7.631 -6.181,-13.812 -13.811,-13.812" style="fill:#0bb5a8;fill-rule:nonzero;"/></svg>