<?xml version="1.0" encoding="UTF-8" standalone="no"?><!DOCTYPE svg PUBLIC "-//W3C//DTD SVG 1.1//EN" "http://www.w3.org/Graphics/SVG/1.1/DTD/svg11.dtd"><svg width="100%" height="100%" viewBox="0 0 39 39" version="1.1" xmlns="http://www.w3.org/2000/svg" xmlns:xlink="http://www.w3.org/1999/xlink" xml:space="preserve" xmlns:serif="http://www.serif.com/" style="fill-rule:evenodd;clip-rule:evenodd;stroke-linejoin:round;stroke-miterlimit:1.41421;"><path d="M19.297,0c-5.24,0 -5.897,0.021 -7.956,0.115c-2.054,0.094 -3.457,0.42 -4.685,0.898c-1.268,0.493 -2.344,1.153 -3.418,2.225c-1.072,1.074 -1.732,2.15 -2.225,3.418c-0.477,1.228 -0.803,2.631 -0.897,4.685c-0.094,2.058 -0.116,2.716 -0.116,7.956c0,5.241 0.022,5.898 0.116,7.957c0.094,2.054 0.42,3.456 0.897,4.683c0.493,1.27 1.153,2.346 2.225,3.418c1.074,1.074 2.15,1.734 3.418,2.227c1.228,0.477 2.631,0.803 4.685,0.897c2.059,0.093 2.716,0.116 7.956,0.116c5.241,0 5.898,-0.023 7.957,-0.116c2.054,-0.094 3.457,-0.42 4.685,-0.897c1.268,-0.493 2.344,-1.153 3.418,-2.227c1.072,-1.072 1.732,-2.148 2.225,-3.418c0.477,-1.227 0.803,-2.629 0.897,-4.683c0.093,-2.059 0.116,-2.716 0.116,-7.957c0,-5.24 -0.023,-5.898 -0.116,-7.956c-0.094,-2.054 -0.42,-3.457 -0.897,-4.685c-0.493,-1.268 -1.153,-2.344 -2.225,-3.418c-1.074,-1.072 -2.15,-1.732 -3.418,-2.225c-1.228,-0.478 -2.631,-0.804 -4.685,-0.898c-2.059,-0.094 -2.716,-0.115 -7.957,-0.115m0,3.477c5.153,0 5.764,0.019 7.798,0.112c1.882,0.086 2.903,0.4 3.584,0.665c0.9,0.35 1.543,0.767 2.219,1.443c0.674,0.675 1.093,1.319 1.443,2.219c0.265,0.68 0.579,1.702 0.664,3.583c0.094,2.035 0.113,2.646 0.113,7.798c0,5.153 -0.019,5.764 -0.113,7.798c-0.085,1.882 -0.399,2.903 -0.664,3.584c-0.35,0.9 -0.769,1.543 -1.443,2.218c-0.676,0.675 -1.319,1.093 -2.219,1.444c-0.681,0.264 -1.702,0.578 -3.584,0.664c-2.034,0.093 -2.645,0.113 -7.798,0.113c-5.152,0 -5.763,-0.02 -7.798,-0.113c-1.881,-0.086 -2.903,-0.4 -3.583,-0.664c-0.9,-0.351 -1.544,-0.769 -2.219,-1.444c-0.674,-0.675 -1.093,-1.318 -1.443,-2.218c-0.265,-0.681 -0.579,-1.702 -0.665,-3.584c-0.093,-2.034 -0.112,-2.645 -0.112,-7.798c0,-5.152 0.019,-5.763 0.112,-7.798c0.086,-1.881 0.4,-2.903 0.665,-3.583c0.35,-0.9 0.769,-1.544 1.443,-2.219c0.675,-0.676 1.319,-1.093 2.219,-1.443c0.68,-0.265 1.702,-0.579 3.583,-0.665c2.035,-0.093 2.646,-0.112 7.798,-0.112" style="fill:#fff;fill-rule:nonzero;"/><path d="M19.297,25.729c-3.552,0 -6.432,-2.88 -6.432,-6.433c0,-3.552 2.88,-6.432 6.432,-6.432c3.553,0 6.433,2.88 6.433,6.432c0,3.553 -2.88,6.433 -6.433,6.433m0,-16.342c-5.473,0 -9.909,4.437 -9.909,9.909c0,5.474 4.436,9.911 9.909,9.911c5.474,0 9.91,-4.437 9.91,-9.911c0,-5.472 -4.436,-9.909 -9.91,-9.909" style="fill:#fff;fill-rule:nonzero;"/><path d="M31.914,8.996c0,1.279 -1.037,2.315 -2.315,2.315c-1.28,0 -2.317,-1.036 -2.317,-2.315c0,-1.279 1.037,-2.315 2.317,-2.315c1.278,0 2.315,1.036 2.315,2.315" style="fill:#fff;fill-rule:nonzero;"/></svg>