<svg viewBox="0 0 39 39" xmlns="http://www.w3.org/2000/svg" fill-rule="evenodd" clip-rule="evenodd" stroke-linejoin="round" stroke-miterlimit="1.414"><path d="M19.297 0c-5.24 0-5.897.021-7.956.115-2.054.094-3.457.42-4.685.898a9.484 9.484 0 0 0-3.418 2.225 9.484 9.484 0 0 0-2.225 3.418C.536 7.884.21 9.287.116 11.341.022 13.399 0 14.057 0 19.297c0 5.241.022 5.898.116 7.957.094 2.054.42 3.456.897 4.683a9.45 9.45 0 0 0 2.225 3.418 9.463 9.463 0 0 0 3.418 2.227c1.228.477 2.631.803 4.685.897 2.059.093 2.716.116 7.956.116 5.241 0 5.898-.023 7.957-.116 2.054-.094 3.457-.42 4.685-.897a9.463 9.463 0 0 0 3.418-2.227 9.45 9.45 0 0 0 2.225-3.418c.477-1.227.803-2.629.897-4.683.093-2.059.116-2.716.116-7.957 0-5.24-.023-5.898-.116-7.956-.094-2.054-.42-3.457-.897-4.685a9.484 9.484 0 0 0-2.225-3.418 9.484 9.484 0 0 0-3.418-2.225C30.711.535 29.308.209 27.254.115 25.195.021 24.538 0 19.297 0m0 3.477c5.153 0 5.764.019 7.798.112 1.882.086 2.903.4 3.584.665.9.35 1.543.767 2.219 1.443a5.997 5.997 0 0 1 1.443 2.219c.265.68.579 1.702.664 3.583.094 2.035.113 2.646.113 7.798 0 5.153-.019 5.764-.113 7.798-.085 1.882-.399 2.903-.664 3.584-.35.9-.769 1.543-1.443 2.218a6.008 6.008 0 0 1-2.219 1.444c-.681.264-1.702.578-3.584.664-2.034.093-2.645.113-7.798.113-5.152 0-5.763-.02-7.798-.113-1.881-.086-2.903-.4-3.583-.664-.9-.351-1.544-.769-2.219-1.444a5.993 5.993 0 0 1-1.443-2.218c-.265-.681-.579-1.702-.665-3.584-.093-2.034-.112-2.645-.112-7.798 0-5.152.019-5.763.112-7.798.086-1.881.4-2.903.665-3.583.35-.9.769-1.544 1.443-2.219.675-.676 1.319-1.093 2.219-1.443.68-.265 1.702-.579 3.583-.665 2.035-.093 2.646-.112 7.798-.112" fill="#fff" fill-rule="nonzero"/><path d="M19.297 25.729a6.433 6.433 0 1 1 .001-12.865 6.433 6.433 0 0 1-.001 12.865m0-16.342c-5.473 0-9.909 4.437-9.909 9.909 0 5.474 4.436 9.911 9.909 9.911 5.474 0 9.91-4.437 9.91-9.911 0-5.472-4.436-9.909-9.91-9.909M31.914 8.996a2.315 2.315 0 1 1-4.63 0 2.315 2.315 0 0 1 4.63 0" fill="#fff" fill-rule="nonzero"/></svg>