<svg id="Layer_1" xmlns="http://www.w3.org/2000/svg" viewBox="0 0 45 45"><style>.st0{fill:#bac6ce}</style><path class="st0" d="M22.5 7.5c4.8 0 5.4 0 7.3.1 1.8.1 2.7.4 3.4.6.8.4 1.4.8 2 1.4.6.6 1 1.2 1.4 2.1.2.6.5 1.6.6 3.4.1 1.9.1 2.5.1 7.3s0 5.4-.1 7.3c-.1 1.8-.4 2.7-.6 3.4-.3.8-.7 1.4-1.4 2.1-.6.6-1.2 1-2.1 1.4-.6.2-1.6.5-3.4.6-1.9.1-2.5.1-7.3.1s-5.4 0-7.3-.1c-1.8-.1-2.7-.4-3.4-.6-.8-.3-1.4-.7-2.1-1.4-.6-.6-1-1.2-1.4-2.1-.2-.6-.5-1.6-.6-3.4-.1-1.9-.1-2.5-.1-7.3s0-5.4.1-7.3c.1-1.8.4-2.7.6-3.4.3-.8.7-1.4 1.4-2.1.6-.6 1.2-1 2.1-1.4.6-.2 1.6-.5 3.4-.6 2-.1 2.6-.1 7.4-.1m0-3.2c-4.9 0-5.5 0-7.4.1-1.9.1-3.2.4-4.4.8-1.2.5-2.2 1.1-3.2 2.1s-1.6 2-2.1 3.2c-.4 1.1-.8 2.5-.8 4.4-.1 1.9-.1 2.5-.1 7.4s0 5.5.1 7.4c.1 1.9.4 3.2.8 4.4.5 1.2 1.1 2.2 2.1 3.2s2 1.6 3.2 2.1c1.1.4 2.5.8 4.4.8 1.9.1 2.5.1 7.4.1s5.5 0 7.4-.1c1.9-.1 3.2-.4 4.4-.8 1.2-.5 2.2-1.1 3.2-2.1s1.6-2 2.1-3.2c.4-1.1.8-2.5.8-4.4.1-1.9.1-2.5.1-7.4s0-5.5-.1-7.4c-.1-1.9-.4-3.2-.8-4.4-.5-1.2-1.1-2.2-2.1-3.2s-2-1.6-3.2-2.1c-1.1-.4-2.5-.8-4.4-.8-1.9-.1-2.5-.1-7.4-.1z"/><path class="st0" d="M22.5 13c-5.1 0-9.3 4.2-9.3 9.3s4.2 9.3 9.3 9.3 9.3-4.2 9.3-9.3-4.2-9.3-9.3-9.3zm0 15.3c-3.3 0-6-2.7-6-6s2.7-6 6-6 6 2.7 6 6-2.7 6-6 6z"/><circle class="st0" cx="32.1" cy="12.7" r="2.2"/></svg>