<?xml version="1.0" encoding="utf-8"?>
<!-- Generator: Adobe Illustrator 19.1.0, SVG Export Plug-In . SVG Version: 6.00 Build 0)  -->
<svg version="1.1" id="Layer_1" xmlns="http://www.w3.org/2000/svg" xmlns:xlink="http://www.w3.org/1999/xlink" x="0px" y="0px"
	 viewBox="0 0 45 45" style="enable-background:new 0 0 45 45;" xml:space="preserve">
<style type="text/css">
	.st0{fill:#FFFFFF;}
</style>
<g>
	<path class="st0" d="M22.5,7.5c4.8,0,5.4,0,7.3,0.1c1.8,0.1,2.7,0.4,3.4,0.6C34,8.6,34.6,9,35.2,9.6c0.6,0.6,1,1.2,1.4,2.1
		c0.2,0.6,0.5,1.6,0.6,3.4c0.1,1.9,0.1,2.5,0.1,7.3s0,5.4-0.1,7.3c-0.1,1.8-0.4,2.7-0.6,3.4c-0.3,0.8-0.7,1.4-1.4,2.1
		c-0.6,0.6-1.2,1-2.1,1.4c-0.6,0.2-1.6,0.5-3.4,0.6c-1.9,0.1-2.5,0.1-7.3,0.1s-5.4,0-7.3-0.1c-1.8-0.1-2.7-0.4-3.4-0.6
		c-0.8-0.3-1.4-0.7-2.1-1.4c-0.6-0.6-1-1.2-1.4-2.1c-0.2-0.6-0.5-1.6-0.6-3.4c-0.1-1.9-0.1-2.5-0.1-7.3s0-5.4,0.1-7.3
		c0.1-1.8,0.4-2.7,0.6-3.4c0.3-0.8,0.7-1.4,1.4-2.1c0.6-0.6,1.2-1,2.1-1.4c0.6-0.2,1.6-0.5,3.4-0.6C17.1,7.5,17.7,7.5,22.5,7.5
		 M22.5,4.3c-4.9,0-5.5,0-7.4,0.1c-1.9,0.1-3.2,0.4-4.4,0.8C9.5,5.7,8.5,6.3,7.5,7.3c-1,1-1.6,2-2.1,3.2c-0.4,1.1-0.8,2.5-0.8,4.4
		c-0.1,1.9-0.1,2.5-0.1,7.4c0,4.9,0,5.5,0.1,7.4c0.1,1.9,0.4,3.2,0.8,4.4c0.5,1.2,1.1,2.2,2.1,3.2c1,1,2,1.6,3.2,2.1
		c1.1,0.4,2.5,0.8,4.4,0.8c1.9,0.1,2.5,0.1,7.4,0.1s5.5,0,7.4-0.1c1.9-0.1,3.2-0.4,4.4-0.8c1.2-0.5,2.2-1.1,3.2-2.1
		c1-1,1.6-2,2.1-3.2c0.4-1.1,0.8-2.5,0.8-4.4c0.1-1.9,0.1-2.5,0.1-7.4s0-5.5-0.1-7.4c-0.1-1.9-0.4-3.2-0.8-4.4
		c-0.5-1.2-1.1-2.2-2.1-3.2c-1-1-2-1.6-3.2-2.1c-1.1-0.4-2.5-0.8-4.4-0.8C28,4.3,27.4,4.3,22.5,4.3L22.5,4.3z"/>
	<path class="st0" d="M22.5,13c-5.1,0-9.3,4.2-9.3,9.3s4.2,9.3,9.3,9.3s9.3-4.2,9.3-9.3S27.6,13,22.5,13z M22.5,28.3
		c-3.3,0-6-2.7-6-6s2.7-6,6-6s6,2.7,6,6S25.8,28.3,22.5,28.3z"/>
	<circle class="st0" cx="32.1" cy="12.7" r="2.2"/>
</g>
</svg>
