<?xml version="1.0" encoding="UTF-8" standalone="no"?><!DOCTYPE svg PUBLIC "-//W3C//DTD SVG 1.1//EN" "http://www.w3.org/Graphics/SVG/1.1/DTD/svg11.dtd"><svg width="100%" height="100%" viewBox="0 0 26 35" version="1.1" xmlns="http://www.w3.org/2000/svg" xmlns:xlink="http://www.w3.org/1999/xlink" xml:space="preserve" xmlns:serif="http://www.serif.com/" style="fill-rule:evenodd;clip-rule:evenodd;stroke-linejoin:round;stroke-miterlimit:1.41421;"><path d="M12.999,19.266c-3.545,0 -6.422,-2.876 -6.422,-6.422c0,-3.546 2.877,-6.422 6.422,-6.422c3.546,0 6.422,2.876 6.422,6.422c0,3.546 -2.876,6.422 -6.422,6.422m0,-19.266c-7.179,0 -12.999,5.82 -12.999,12.998c0,9.185 9.341,18.367 12.186,20.953c0.443,0.401 1.183,0.401 1.626,0c2.845,-2.586 12.186,-11.768 12.186,-20.953c0,-7.178 -5.82,-12.998 -12.999,-12.998" style="fill:#0bb5a8;fill-rule:nonzero;"/></svg>