<?xml version="1.0" encoding="UTF-8" standalone="no"?>
<!DOCTYPE svg PUBLIC "-//W3C//DTD SVG 1.1//EN" "http://www.w3.org/Graphics/SVG/1.1/DTD/svg11.dtd">
<svg width="100%" height="100%" viewBox="0 0 1880 638" version="1.1" xmlns="http://www.w3.org/2000/svg" xmlns:xlink="http://www.w3.org/1999/xlink" xml:space="preserve" xmlns:serif="http://www.serif.com/" style="fill-rule:evenodd;clip-rule:evenodd;stroke-linejoin:round;stroke-miterlimit:1.41421;">
    <g transform="matrix(4.16667,0,0,4.16667,0,0)">
        <path d="M221.457,54.25C221.457,52.594 220.872,51.181 219.702,50.011C218.532,48.842 217.119,48.256 215.463,48.256C213.771,48.256 212.34,48.842 211.17,50.011C210,51.181 209.415,52.594 209.415,54.25C209.415,55.943 210,57.373 211.17,58.543C212.34,59.713 213.771,60.298 215.463,60.298C217.119,60.298 218.532,59.713 219.702,58.543C220.872,57.373 221.457,55.943 221.457,54.25ZM228.153,54.25C228.153,57.779 226.911,60.784 224.427,63.268C221.943,65.752 218.955,66.994 215.463,66.994C212.079,66.994 209.109,65.77 206.553,63.322C203.997,60.874 202.719,57.958 202.719,54.574L202.719,30.652L209.577,30.652L209.577,43.018C211.413,42.046 213.375,41.56 215.463,41.56C218.955,41.56 221.943,42.802 224.427,45.286C226.911,47.77 228.153,50.759 228.153,54.25Z" style="fill:rgb(232,125,36);fill-rule:nonzero;"/>
        <path d="M251.211,54.304C251.211,52.612 250.617,51.181 249.429,50.011C248.241,48.842 246.818,48.256 245.163,48.256C243.507,48.256 242.093,48.842 240.924,50.011C239.754,51.181 239.169,52.612 239.169,54.304C239.169,55.96 239.754,57.373 240.924,58.543C242.093,59.713 243.507,60.298 245.163,60.298C246.818,60.298 248.241,59.713 249.429,58.543C250.617,57.373 251.211,55.96 251.211,54.304ZM257.853,54.304C257.853,57.796 256.618,60.784 254.154,63.268C251.687,65.752 248.691,66.994 245.163,66.994C241.671,66.994 238.683,65.752 236.199,63.268C233.715,60.784 232.473,57.796 232.473,54.304C232.473,50.776 233.715,47.77 236.199,45.286C238.683,42.802 241.671,41.56 245.163,41.56C248.691,41.56 251.687,42.802 254.154,45.286C256.618,47.77 257.853,50.776 257.853,54.304Z" style="fill:rgb(232,125,36);fill-rule:nonzero;"/>
        <path d="M295.436,41.776L295.436,57.112C295.4,59.777 294.427,62.053 292.52,63.943C290.612,65.833 288.308,66.778 285.608,66.778C283.159,66.778 281.018,65.987 279.182,64.402C277.346,66.058 275.167,66.886 272.648,66.886C269.948,66.886 267.616,65.941 265.655,64.051C263.693,62.161 262.712,59.902 262.712,57.274L262.712,41.83L269.408,41.83L269.408,57.166C269.408,58.03 269.714,58.768 270.326,59.38C270.938,59.992 271.676,60.298 272.54,60.298C273.439,60.298 274.196,59.992 274.808,59.38C275.42,58.768 275.726,58.03 275.726,57.166C275.726,57.598 275.726,55.042 275.726,49.498C275.726,44.494 275.726,41.938 275.726,41.83L282.422,41.83L282.422,57.544C282.53,58.3 282.872,58.93 283.448,59.434C284.023,59.938 284.725,60.19 285.554,60.19C286.418,60.19 287.147,59.885 287.741,59.272C288.335,58.66 288.632,57.904 288.632,57.004C288.632,57.401 288.632,52.324 288.632,41.776L295.436,41.776Z" style="fill:rgb(232,125,36);fill-rule:nonzero;"/>
        <path d="M335.63,41.83L329.42,61.324C329.095,63.016 328.33,64.375 327.125,65.401C325.918,66.427 324.506,66.94 322.885,66.94C321.517,66.94 320.284,66.589 319.186,65.887C318.088,65.185 317.305,64.24 316.838,63.052C315.758,60.317 313.453,53.242 309.926,41.83L317.216,41.83L322.831,59.866L328.34,41.83L335.63,41.83Z" style="fill:rgb(232,125,36);fill-rule:nonzero;"/>
        <path d="M357.337,53.872C357.372,53.8 357.337,53.458 357.228,52.846C356.976,51.478 356.301,50.344 355.204,49.444C354.105,48.545 352.855,48.094 351.451,48.094C349.795,48.094 348.39,48.67 347.239,49.822C346.086,50.974 345.51,52.379 345.51,54.034C345.51,57.022 345.619,58.768 345.835,59.272C346.194,60.172 346.824,60.604 347.724,60.568C349.056,60.532 351.144,59.434 353.989,57.274C355.32,56.23 356.436,55.096 357.337,53.872ZM363.817,52.522L363.817,66.724L357.228,66.724L357.228,62.62C356.4,63.341 355.051,64.168 353.178,65.104C351.127,66.149 349.722,66.67 348.967,66.67C347.239,66.67 346.302,66.652 346.159,66.616C344.755,66.4 343.44,65.798 342.217,64.807C340.993,63.817 340.129,62.531 339.625,60.946C339.12,59.362 338.869,57.004 338.869,53.872C338.869,50.416 340.092,47.491 342.541,45.097C344.988,42.703 347.959,41.506 351.451,41.506C354.654,41.506 357.426,42.559 359.766,44.665C362.106,46.771 363.457,49.39 363.817,52.522Z" style="fill:rgb(232,125,36);fill-rule:nonzero;"/>
        <rect x="369.757" y="30.598" width="6.857" height="36.126" style="fill:rgb(232,125,36);fill-rule:nonzero;"/>
        <rect x="383.094" y="30.598" width="6.858" height="36.126" style="fill:rgb(232,125,36);fill-rule:nonzero;"/>
        <path d="M413.927,51.496C412.739,49.048 410.759,47.824 407.987,47.824C405.251,47.824 403.27,49.048 402.048,51.496L413.927,51.496ZM420.245,56.842L402.048,56.896C402.407,58.049 403.154,59.02 404.288,59.812C405.423,60.604 406.655,61 407.987,61C409.716,61 411.281,60.352 412.685,59.056C414.377,60.784 415.799,62.206 416.951,63.322C414.467,65.77 411.497,66.994 408.041,66.994C404.549,66.994 401.561,65.752 399.077,63.268C396.593,60.784 395.351,57.796 395.351,54.304C395.351,50.776 396.593,47.77 399.077,45.286C401.561,42.802 404.549,41.56 408.041,41.56C412.936,41.56 416.466,43.612 418.625,47.716C419.741,49.841 420.3,52.234 420.3,54.898C420.3,55.474 420.281,56.122 420.245,56.842Z" style="fill:rgb(232,125,36);fill-rule:nonzero;"/>
        <path d="M450.701,77.578L443.842,77.578L443.842,65.266C441.97,66.274 439.972,66.778 437.848,66.778C434.356,66.778 431.369,65.545 428.884,63.079C426.401,60.614 425.159,57.616 425.159,54.088L425.159,41.83L431.801,41.83L431.855,54.088C431.855,55.781 432.439,57.212 433.61,58.381C434.779,59.551 436.192,60.136 437.848,60.136C439.396,60.136 440.738,59.623 441.872,58.597C443.006,57.571 443.662,56.302 443.842,54.79L443.789,41.83L450.701,41.83L450.701,77.578Z" style="fill:rgb(232,125,36);fill-rule:nonzero;"/>
        <path d="M212.044,127.532C212.044,127.532 219.963,135.227 228.761,135.227C232.281,135.227 236.094,133.772 236.094,129.299C236.094,120.459 204.614,120.771 204.614,97.89C204.614,84.162 215.466,75.114 229.348,75.114C244.404,75.114 251.834,83.538 251.834,83.538L244.599,98.411C244.599,98.411 237.56,91.858 229.153,91.858C225.633,91.858 221.723,93.522 221.723,97.682C221.723,107.042 253.202,105.378 253.202,128.883C253.202,141.26 244.306,151.972 228.566,151.972C212.142,151.972 203.05,141.364 203.05,141.364L212.044,127.532Z" style="fill:rgb(232,125,36);fill-rule:nonzero;"/>
        <path d="M285.656,112.139C291.62,112.139 294.553,107.874 294.553,101.946C294.553,96.018 291.62,91.962 285.95,91.962L277.249,91.962L277.249,112.139L285.656,112.139ZM260.14,76.362L289.176,76.362C302.765,76.362 311.955,86.97 311.955,101.946C311.955,116.922 302.765,127.739 289.176,127.739L277.249,127.739L277.249,150.724L260.14,150.724L260.14,76.362Z" style="fill:rgb(232,125,36);fill-rule:nonzero;"/>
        <path d="M353.11,75.114C370.414,75.114 379.31,85.618 379.31,85.618L371.391,99.346C371.391,99.346 363.571,91.755 353.892,91.755C340.499,91.755 334.144,102.258 334.144,112.971C334.144,123.994 340.987,135.331 353.892,135.331C364.451,135.331 372.467,126.179 372.467,126.179L381.265,139.492C381.265,139.492 371.391,151.972 353.11,151.972C331.211,151.972 316.449,135.436 316.449,113.387C316.449,91.755 332.091,75.114 353.11,75.114Z" style="fill:rgb(232,125,36);fill-rule:nonzero;"/>
        <path d="M415.675,93.314C415.675,93.314 414.11,101.426 412.84,106.106L408.831,120.563L422.616,120.563L418.705,106.106C417.434,101.426 415.87,93.314 415.87,93.314L415.675,93.314ZM426.624,135.123L404.823,135.123L400.619,150.724L383.022,150.724L406.778,76.362L424.766,76.362L448.523,150.724L430.926,150.724L426.624,135.123Z" style="fill:rgb(232,125,36);fill-rule:nonzero;"/>
        <path d="M25.652,47.926L179.09,28.62L179.09,152.354L25.886,152.354L25.652,47.926Z" style="fill:rgb(232,125,36);fill-rule:nonzero;"/>
        <path d="M198.451,16.199C196.109,17.838 11.498,43.189 8.076,42.37C6.084,41.876 -0.672,31.694 0.054,29.254C0.702,27.13 203.305,-0.195 205.102,1.002C205.102,1.002 200.038,15.084 198.451,16.199Z" style="fill:rgb(232,125,36);fill-rule:nonzero;"/>
        <path d="M99.635,172C80.352,171.997 64.739,156.441 64.743,137.269C64.756,118.094 80.388,102.555 99.665,102.561C118.949,102.571 134.567,118.127 134.554,137.302C134.554,156.47 118.916,172.01 99.635,172Z" style="fill:white;fill-rule:nonzero;"/>
        <path d="M72.056,97.094C72.056,107.265 66.625,115.517 59.931,115.517C53.237,115.517 47.813,107.265 47.813,97.094C47.813,86.923 53.237,78.677 59.931,78.677C66.625,78.677 72.056,86.923 72.056,97.094Z" style="fill:white;fill-rule:nonzero;"/>
        <path d="M99.006,74.031C99.006,84.208 93.588,92.453 86.887,92.453C80.193,92.453 74.772,84.208 74.772,74.031C74.772,63.86 80.193,55.616 86.887,55.616C93.588,55.616 99.006,63.86 99.006,74.031Z" style="fill:white;fill-rule:nonzero;"/>
        <path d="M129.354,74.031C129.354,84.208 123.932,92.453 117.235,92.453C110.541,92.453 105.12,84.208 105.12,74.031C105.12,63.86 110.541,55.616 117.235,55.616C123.932,55.616 129.354,63.86 129.354,74.031Z" style="fill:white;fill-rule:nonzero;"/>
        <path d="M154.853,100.504C154.853,110.682 149.428,118.927 142.735,118.927C136.044,118.927 130.619,110.682 130.619,100.504C130.619,90.331 136.044,82.083 142.735,82.083C149.428,82.083 154.853,90.331 154.853,100.504Z" style="fill:white;fill-rule:nonzero;"/>
    </g>
</svg>
