<svg viewBox="0 0 1880 638" xmlns="http://www.w3.org/2000/svg" fill-rule="evenodd" clip-rule="evenodd" stroke-linejoin="round" stroke-miterlimit="1.414"><g fill-rule="nonzero"><path d="M922.738 226.042c0-6.9-2.437-12.788-7.312-17.663-4.875-4.87-10.763-7.312-17.663-7.312-7.05 0-13.012 2.441-17.887 7.312-4.875 4.875-7.313 10.763-7.313 17.663 0 7.054 2.438 13.012 7.313 17.887s10.837 7.313 17.887 7.313c6.9 0 12.788-2.438 17.663-7.313s7.312-10.833 7.312-17.887zm27.9 0c0 14.704-5.175 27.225-15.525 37.575-10.35 10.35-22.8 15.525-37.35 15.525-14.1 0-26.475-5.1-37.125-15.3-10.65-10.2-15.975-22.35-15.975-36.45v-99.675h28.575v51.525c7.65-4.05 15.825-6.075 24.525-6.075 14.55 0 27 5.175 37.35 15.525 10.35 10.35 15.525 22.804 15.525 37.35zM1046.713 226.267c0-7.05-2.475-13.013-7.425-17.888-4.95-4.87-10.879-7.312-17.775-7.312-6.9 0-12.791 2.441-17.662 7.312-4.875 4.875-7.313 10.838-7.313 17.888 0 6.9 2.438 12.787 7.313 17.662 4.87 4.875 10.762 7.313 17.662 7.313 6.896 0 12.825-2.438 17.775-7.313 4.95-4.875 7.425-10.762 7.425-17.662zm27.675 0c0 14.55-5.145 27-15.412 37.35-10.28 10.35-22.763 15.525-37.463 15.525-14.55 0-27-5.175-37.35-15.525-10.35-10.35-15.525-22.8-15.525-37.35 0-14.7 5.175-27.225 15.525-37.575 10.35-10.35 22.8-15.525 37.35-15.525 14.7 0 27.184 5.175 37.463 15.525 10.267 10.35 15.412 22.875 15.412 37.575zM1230.984 174.067v63.9c-.15 11.104-4.204 20.587-12.15 28.462-7.95 7.875-17.55 11.813-28.8 11.813-10.204 0-19.125-3.296-26.775-9.9-7.65 6.9-16.729 10.35-27.225 10.35-11.25 0-20.966-3.938-29.137-11.813-8.175-7.875-12.263-17.287-12.263-28.237v-64.35h27.9v63.9c0 3.6 1.275 6.675 3.825 9.225 2.55 2.55 5.625 3.825 9.225 3.825 3.746 0 6.9-1.275 9.45-3.825 2.55-2.55 3.825-5.625 3.825-9.225v-31.95-31.95h27.9v65.475c.45 3.15 1.875 5.775 4.275 7.875 2.396 2.1 5.321 3.15 8.775 3.15 3.6 0 6.638-1.271 9.113-3.825 2.475-2.55 3.712-5.7 3.712-9.45v-63.45h28.35zM1398.46 174.292l-25.876 81.225c-1.354 7.05-4.541 12.712-9.562 16.987-5.03 4.275-10.913 6.413-17.667 6.413-5.7 0-10.837-1.463-15.412-4.388-4.575-2.925-7.838-6.862-9.784-11.812-4.5-11.396-14.104-40.875-28.8-88.425h30.375l23.396 75.15 22.954-75.15h30.375zM1488.905 224.467c.146-.3 0-1.725-.454-4.275-1.05-5.7-3.862-10.425-8.433-14.175-4.58-3.746-9.788-5.625-15.638-5.625-6.9 0-12.754 2.4-17.55 7.2-4.804 4.8-7.204 10.654-7.204 17.55 0 12.45.454 19.725 1.354 21.825 1.496 3.75 4.121 5.55 7.871 5.4 5.55-.15 14.25-4.725 26.104-13.725 5.546-4.35 10.196-9.075 13.95-14.175zm27-5.625v59.175h-27.454v-17.1c-3.45 3.004-9.07 6.45-16.875 10.35-8.546 4.354-14.4 6.525-17.546 6.525-7.2 0-11.104-.075-11.7-.225-5.85-.9-11.329-3.408-16.425-7.538-5.1-4.125-8.7-9.483-10.8-16.087-2.104-6.6-3.15-16.425-3.15-29.475 0-14.4 5.096-26.588 15.3-36.563 10.196-9.975 22.575-14.962 37.125-14.962 13.346 0 24.896 4.387 34.646 13.162 9.75 8.775 15.38 19.688 16.88 32.738zM1540.655 127.492h28.571v150.525h-28.57zM1596.226 127.492h28.575v150.525h-28.575zM1724.697 214.567c-4.95-10.2-13.2-15.3-24.75-15.3-11.4 0-19.654 5.1-24.746 15.3h49.496zm26.325 22.275l-75.82.225c1.495 4.804 4.608 8.85 9.333 12.15 4.729 3.3 9.862 4.95 15.412 4.95 7.204 0 13.725-2.7 19.575-8.1 7.05 7.2 12.975 13.125 17.775 17.775-10.35 10.2-22.725 15.3-37.125 15.3-14.55 0-27-5.175-37.35-15.525-10.35-10.35-15.525-22.8-15.525-37.35 0-14.7 5.175-27.225 15.525-37.575 10.35-10.35 22.8-15.525 37.35-15.525 20.396 0 35.104 8.55 44.1 25.65 4.65 8.854 6.98 18.825 6.98 29.925 0 2.4-.08 5.1-.23 8.1zM1877.922 323.242h-28.579v-51.3c-7.8 4.2-16.125 6.3-24.975 6.3-14.55 0-26.996-5.138-37.35-15.413-10.346-10.27-15.52-22.762-15.52-37.462v-51.075h27.674l.225 51.075c0 7.054 2.434 13.017 7.313 17.887 4.87 4.875 10.758 7.313 17.658 7.313 6.45 0 12.042-2.138 16.767-6.413s7.458-9.562 8.208-15.862l-.22-54h28.8v148.95zM883.517 531.384s32.996 32.062 69.655 32.062c14.666 0 30.554-6.062 30.554-24.7 0-36.833-131.167-35.533-131.167-130.87 0-57.2 45.217-94.9 103.058-94.9 62.734 0 93.692 35.1 93.692 35.1l-30.146 61.97s-29.329-27.304-64.358-27.304c-14.667 0-30.958 6.933-30.958 24.267 0 39 131.162 32.066 131.162 130.004 0 51.57-37.067 96.204-102.65 96.204-68.433 0-106.317-44.2-106.317-44.2l37.475-57.633zM1190.234 467.246c24.85 0 37.071-17.77 37.071-42.47s-12.22-41.6-35.846-41.6h-36.254v84.07h35.03zm-106.316-149.07H1204.9c56.62 0 94.913 44.2 94.913 106.6 0 62.4-38.292 107.47-94.913 107.47h-49.696v95.771h-71.287V318.175zM1471.293 312.975c72.1 0 109.167 43.767 109.167 43.767l-32.996 57.2s-32.584-31.63-72.913-31.63c-55.804 0-82.283 43.763-82.283 88.4 0 45.93 28.512 93.168 82.283 93.168 43.996 0 77.396-38.134 77.396-38.134l36.658 55.471s-41.141 52-117.312 52c-91.246 0-152.754-68.9-152.754-160.77 0-90.134 65.175-159.472 152.754-159.472zM1731.98 388.809s-6.52 33.8-11.812 53.3l-16.704 60.237h57.437l-16.295-60.237c-5.296-19.5-11.813-53.3-11.813-53.3h-.812zm45.621 174.204h-90.837l-17.517 65.004h-73.32l98.983-309.842h74.95l98.987 309.842h-73.32l-17.926-65.004zM106.883 199.692L746.21 119.25V634.81h-638.35l-.976-435.117zM826.88 67.496c-9.759 6.83-778.972 112.458-793.23 109.046-8.3-2.059-36.45-44.484-33.425-54.65 2.7-8.85 846.88-122.705 854.367-117.717 0 0-21.1 58.675-27.712 63.32z" fill="#e87d24"/><path d="M415.146 716.667c-80.346-.012-145.4-64.829-145.383-144.712.054-79.896 65.187-144.642 145.508-144.617 80.35.042 145.425 64.858 145.371 144.754 0 79.867-65.158 144.617-145.496 144.575zM300.234 404.559c0 42.379-22.63 76.762-50.521 76.762-27.892 0-50.492-34.383-50.492-76.762 0-42.38 22.6-76.738 50.492-76.738 27.891 0 50.52 34.358 50.52 76.738zM412.525 308.463c0 42.404-22.575 76.758-50.496 76.758-27.891 0-50.479-34.354-50.479-76.758 0-42.38 22.588-76.73 50.48-76.73 27.92 0 50.495 34.35 50.495 76.73zM538.975 308.463c0 42.404-22.591 76.758-50.495 76.758-27.892 0-50.48-34.354-50.48-76.758 0-42.38 22.588-76.73 50.48-76.73 27.904 0 50.495 34.35 50.495 76.73zM645.221 418.767c0 42.408-22.604 76.763-50.491 76.763-27.88 0-50.484-34.355-50.484-76.763 0-42.388 22.604-76.754 50.484-76.754 27.887 0 50.491 34.366 50.491 76.754z" fill="#fff"/></g></svg>