<?xml version="1.0" encoding="UTF-8" standalone="no"?><!DOCTYPE svg PUBLIC "-//W3C//DTD SVG 1.1//EN" "http://www.w3.org/Graphics/SVG/1.1/DTD/svg11.dtd"><svg width="100%" height="100%" viewBox="0 0 563 155" version="1.1" xmlns="http://www.w3.org/2000/svg" xmlns:xlink="http://www.w3.org/1999/xlink" xml:space="preserve" style="fill-rule:evenodd;clip-rule:evenodd;stroke-linejoin:round;stroke-miterlimit:1.41421;"><g><path d="M216.113,15.924c-2.567,1.689 -203.732,29.291 -207.457,28.491c-2.16,-0.481 -9.41,-10.74 -8.593,-13.225c0.726,-2.159 221.496,-31.947 223.439,-30.752c0,0 -5.655,14.342 -7.389,15.486Z" style="fill:#f3a85d;fill-rule:nonzero;"/><path d="M156.054,120.21c-6.932,0 -12.552,-8.544 -12.552,-19.085c0,-10.543 5.62,-19.086 12.552,-19.086c6.934,0 12.562,8.543 12.562,19.086c0,10.541 -5.628,19.085 -12.562,19.085Zm-26.422,-27.429c-6.935,0 -12.556,-8.541 -12.556,-19.088c0,-10.543 5.621,-19.083 12.556,-19.083c6.94,0 12.559,8.54 12.559,19.083c0,10.547 -5.619,19.088 -12.559,19.088Zm-31.448,0c-6.933,0 -12.557,-8.541 -12.557,-19.088c0,-10.543 5.624,-19.083 12.557,-19.083c6.939,0 12.553,8.54 12.553,19.083c0,10.547 -5.614,19.088 -12.553,19.088Zm-27.932,25.228c-6.935,0 -12.558,-8.548 -12.558,-19.088c0,-10.544 5.623,-19.089 12.558,-19.089c6.933,0 12.561,8.545 12.561,19.089c0,10.54 -5.628,19.088 -12.561,19.088Zm-35.525,-70.04l0.246,102.277l41.602,0c-0.866,-3.087 -1.338,-6.336 -1.337,-9.697c0.013,-19.874 16.211,-35.97 36.185,-35.966c19.979,0.013 36.172,16.127 36.158,35.996c-0.001,3.351 -0.472,6.59 -1.335,9.667l47.484,0l0,-122.285l-159.003,20.008Z" style="fill:#ed891c;fill-rule:nonzero;"/><path d="M246.553,54.555c2.634,0 4.374,-1.086 4.374,-3.306c0,-2.22 -1.74,-3.259 -4.374,-3.259l-5.409,0l0,6.565l5.409,0Zm-0.095,-12.517c2.117,0 3.293,-1.512 3.293,-3.071c0,-1.889 -0.988,-3.118 -3.293,-3.118l-5.314,0l0,6.189l5.314,0Zm-15.849,-7.369c0,-4.536 1.975,-6.472 6.161,-6.472l11.241,0c9.124,0 11.993,4.062 11.993,8.598c0,3.542 -1.223,6.093 -4.797,7.038l0,0.094c4.138,0.756 6.254,4.063 6.254,8.267c0,5.574 -4.044,10.015 -12.698,10.015l-11.993,0c-4.186,0 -6.161,-1.938 -6.161,-6.472l0,-21.068Z" style="fill:#f3a85d;fill-rule:nonzero;"/><path d="M283.52,35.896c-4.516,0 -6.679,3.779 -6.679,9.307c0,5.526 2.163,9.305 6.679,9.305c4.514,0 6.677,-3.779 6.677,-9.305c0,-5.528 -2.163,-9.307 -6.677,-9.307Zm0,-8.502c8.982,0 17.495,5.904 17.495,17.809c0,12.329 -8.418,17.808 -17.495,17.808c-9.078,0 -17.497,-5.479 -17.497,-17.808c0,-11.905 8.513,-17.809 17.497,-17.809Z" style="fill:#f3a85d;fill-rule:nonzero;"/><path d="M337.651,31.928c0.518,-3.306 2.634,-4.345 5.127,-4.345c2.868,0 4.891,1.984 4.891,4.723c0,1.465 -0.518,3.59 -1.176,6.283l-4.75,19.368c-0.753,3.07 -2.492,4.866 -5.643,4.866l-1.647,0c-3.151,0 -4.656,-1.701 -5.267,-5.008l-2.963,-15.777l-0.094,0l-2.963,15.777c-0.611,3.307 -2.116,5.008 -5.268,5.008l-1.646,0c-3.15,0 -4.891,-1.796 -5.644,-4.866l-4.75,-19.368c-0.658,-2.693 -1.175,-4.818 -1.175,-6.283c0,-2.739 2.022,-4.723 4.891,-4.723c2.492,0 4.609,1.039 5.126,4.345l2.963,18.518l0.094,0l2.963,-17.62c0.612,-3.732 1.74,-5.243 5.456,-5.243c3.716,0 4.845,1.511 5.456,5.243l2.963,17.62l0.093,0l2.963,-18.518Z" style="fill:#f3a85d;fill-rule:nonzero;"/><path d="M391.799,31.314c0.706,-2.787 3.104,-3.731 5.08,-3.731c2.681,0 5.126,1.889 5.126,4.582c0,1.18 -0.189,1.984 -0.705,3.543l-7.855,22.721c-1.269,3.732 -3.009,4.394 -6.772,4.394c-3.763,0 -5.503,-0.662 -6.773,-4.394l-7.854,-22.721c-0.518,-1.559 -0.705,-2.363 -0.705,-3.543c0,-2.693 2.445,-4.582 5.126,-4.582c1.975,0 4.374,0.944 5.079,3.731l5.08,19.557l0.094,0l5.079,-19.557Z" style="fill:#f3a85d;fill-rule:nonzero;"/><path d="M418.137,38.4l-0.094,0l-3.669,12.424l7.431,0l-3.668,-12.424Zm-5.739,19.227l-0.752,2.503c-0.564,1.937 -2.68,2.693 -4.374,2.693c-2.445,0 -4.938,-1.843 -4.938,-4.394c0,-1.558 0.894,-4.062 1.693,-6.33l7.196,-20.123c1.035,-2.835 2.446,-4.393 5.173,-4.393l3.387,0c2.728,0 4.139,1.558 5.173,4.393l7.196,20.123c0.799,2.268 1.693,4.772 1.693,6.33c0,2.551 -2.492,4.394 -4.938,4.394c-1.693,0 -3.809,-0.756 -4.374,-2.693l-0.753,-2.503l-11.382,0Z" style="fill:#f3a85d;fill-rule:nonzero;"/><path d="M460.652,53.422c2.775,0 4.656,1.606 4.656,4.393c0,2.787 -1.881,4.394 -4.656,4.394l-15.991,0c-4.185,0 -6.161,-1.938 -6.161,-6.472l0,-22.297c0,-3.638 2.069,-5.857 5.409,-5.857c3.339,0 5.408,2.219 5.408,5.857l0,19.982l11.335,0Z" style="fill:#f3a85d;fill-rule:nonzero;"/><path d="M492.492,53.422c2.775,0 4.655,1.606 4.655,4.393c0,2.787 -1.88,4.394 -4.655,4.394l-15.991,0c-4.186,0 -6.161,-1.938 -6.161,-6.472l0,-22.297c0,-3.638 2.069,-5.857 5.409,-5.857c3.339,0 5.408,2.219 5.408,5.857l0,19.982l11.335,0Z" style="fill:#f3a85d;fill-rule:nonzero;"/><path d="M502.179,34.669c0,-4.536 1.975,-6.472 6.161,-6.472l17.214,0c3.245,0 4.703,1.605 4.703,3.968c0,2.362 -1.458,3.967 -4.703,3.967l-12.559,0l0,4.772l10.065,0c3.246,0 4.704,1.606 4.704,3.968c0,2.362 -1.458,3.967 -4.704,3.967l-10.065,0l0,5.433l13.075,0c3.246,0 4.703,1.607 4.703,3.968c0,2.362 -1.457,3.969 -4.703,3.969l-17.73,0c-4.186,0 -6.161,-1.938 -6.161,-6.472l0,-21.068Z" style="fill:#f3a85d;fill-rule:nonzero;"/><path d="M552.784,30.889c1.082,-2.219 2.869,-3.306 5.032,-3.306c2.963,0 5.174,2.456 5.174,5.149c0,1.133 -0.47,2.173 -1.364,3.731l-7.807,13.558l0,6.943c0,3.638 -2.069,5.859 -5.409,5.859c-3.339,0 -5.408,-2.221 -5.408,-5.859l0,-6.943l-7.808,-13.558c-0.893,-1.558 -1.363,-2.598 -1.363,-3.731c0,-2.693 2.21,-5.149 5.173,-5.149c2.164,0 3.951,1.087 5.032,3.306l4.374,9.117l4.374,-9.117Z" style="fill:#f3a85d;fill-rule:nonzero;"/><path d="M267.769,125.652l-16.329,-4.697c-12.273,-3.521 -18.997,-10.779 -18.997,-21.557c0,-12.808 8.538,-24.867 29.883,-24.867c14.194,0 32.551,3.415 32.551,16.329c0,5.977 -4.59,9.711 -10.673,9.711c-8.218,0 -8.324,-9.391 -20.491,-9.391c-4.162,0 -8.004,1.601 -8.004,5.122c0,3.415 2.987,4.909 8.218,6.297l12.7,3.415c12.913,3.522 21.771,9.499 21.771,22.84c0,18.249 -15.688,26.146 -31.91,26.146c-25.827,0 -33.725,-11.526 -33.725,-18.463c0,-5.976 4.376,-10.032 10.353,-10.032c8.751,0 9.818,11.206 21.878,11.206c5.016,0 9.498,-1.708 9.498,-6.402c0,-3.096 -2.241,-4.377 -6.723,-5.657Z" style="fill:#ed891c;fill-rule:nonzero;"/><path d="M357.829,110.817c4.056,0 8.325,-2.562 8.325,-7.791c0,-5.122 -3.522,-8.11 -9.499,-8.11l-12.38,0l0,15.901l13.554,0Zm-37.46,-19.851c0,-10.245 4.483,-14.621 13.982,-14.621l22.198,0c18.783,0 33.512,5.763 33.512,26.574c0,20.704 -14.729,26.468 -33.512,26.468l-12.274,0l0,12.379c0,8.218 -4.268,12.807 -11.953,12.807c-7.683,0 -11.953,-4.589 -11.953,-12.807l0,-50.8Z" style="fill:#ed891c;fill-rule:nonzero;"/><path d="M446.718,74.531c18.142,0 31.803,10.565 31.803,21.665c0,6.082 -4.696,10.565 -11.632,10.565c-4.59,0 -6.084,-0.96 -9.393,-6.403c-3.201,-5.229 -6.724,-6.617 -12.059,-6.617c-7.684,0 -13.874,7.47 -13.874,21.025c0,12.486 4.909,21.024 15.155,21.024c4.482,0 6.723,-1.281 11.633,-8.111c2.347,-3.309 5.336,-5.123 8.964,-5.123c6.404,0 11.419,4.376 11.419,10.779c0,13.447 -18.356,21.665 -32.016,21.665c-20.598,0 -39.701,-12.38 -39.701,-40.234c0,-26.894 19.316,-40.235 39.701,-40.235Z" style="fill:#ed891c;fill-rule:nonzero;"/><path d="M525.68,99.398l-0.214,0l-8.324,28.068l16.862,0l-8.324,-28.068Zm-13.021,43.435l-1.708,5.656c-1.28,4.376 -6.083,6.084 -9.925,6.084c-5.549,0 -11.206,-4.162 -11.206,-9.925c0,-3.522 2.028,-9.178 3.842,-14.3l16.329,-45.465c2.348,-6.403 5.55,-9.925 11.738,-9.925l7.686,0c6.189,0 9.392,3.522 11.739,9.925l16.329,45.465c1.815,5.122 3.842,10.778 3.842,14.3c0,5.763 -5.656,9.925 -11.206,9.925c-3.842,0 -8.644,-1.708 -9.925,-6.084l-1.708,-5.656l-25.827,0Z" style="fill:#ed891c;fill-rule:nonzero;"/></g></svg>