<svg xmlns="http://www.w3.org/2000/svg" width="16" height="16"><path d="M8.349 8.625c-1.958 0-3.833.876-5.043 4.402s1.46 3.245 3.145 2.516c1.631-.705 2.252-.813 4.217.121 1.85.879 3.431-.038 2.771-1.965s-2.882-5.075-5.09-5.075zM4.645.681C3.529.948 2.939 2.465 3.327 4.069s1.608 2.689 2.724 2.422l.015-.004c1.116-.267 1.706-1.784 1.318-3.388-.167-.691-.488-1.285-.889-1.716C5.965.812 5.296.526 4.66.677l-.015.004zm6.466-.056C9.988.39 8.806 1.51 8.471 3.127c-.192.929-.063 1.82.296 2.454.265.469.655.798 1.133.898l.012.003c1.123.235 2.305-.885 2.64-2.502S12.247.862 11.123.627a.05.05 0 0 0-.012-.002zM.322 8.964c.617 1.427 1.918 2.239 2.905 1.812.565-.244.905-.841.977-1.574.054-.548-.043-1.173-.307-1.783l-.001-.002C3.279 5.99 1.978 5.178.991 5.605S-.296 7.534.321 8.962l.001.002zm12.452 1.561c.562.247 1.227.09 1.81-.354.439-.335.831-.832 1.098-1.445.621-1.426.326-2.932-.658-3.364l-.013-.006c-.985-.432-2.287.373-2.908 1.799s-.326 2.932.658 3.364l.013.006z" fill="#e68a26"/></svg>