<svg viewBox="0 0 33 33" xmlns="http://www.w3.org/2000/svg" fill-rule="evenodd" clip-rule="evenodd" stroke-linejoin="round" stroke-miterlimit="1.414"><path d="M28.412 20.94a2.386 2.386 0 0 0-3.376 0l-1.686 1.687a2.385 2.385 0 0 1-3.374 0L9.857 12.507a2.386 2.386 0 0 1 0-3.375l1.686-1.685a2.387 2.387 0 0 0 0-3.374L8.171.698a2.387 2.387 0 0 0-3.374 0L.578 4.918c-.466.465-.707 1.36-.508 1.988 1.75 5.53 5.481 11.415 9.787 15.721 4.303 4.304 10.189 8.036 15.72 9.783.63.2 1.525-.042 1.991-.508l4.216-4.215a2.386 2.386 0 0 0 0-3.375l-3.372-3.372z" fill="#f47c22" fill-rule="nonzero"/></svg>