<?xml version="1.0" encoding="UTF-8" standalone="no"?><!DOCTYPE svg PUBLIC "-//W3C//DTD SVG 1.1//EN" "http://www.w3.org/Graphics/SVG/1.1/DTD/svg11.dtd"><svg width="100%" height="100%" viewBox="0 0 33 33" version="1.1" xmlns="http://www.w3.org/2000/svg" xmlns:xlink="http://www.w3.org/1999/xlink" xml:space="preserve" xmlns:serif="http://www.serif.com/" style="fill-rule:evenodd;clip-rule:evenodd;stroke-linejoin:round;stroke-miterlimit:1.41421;"><path d="M28.412,20.94c-0.933,-0.933 -2.441,-0.933 -3.376,0l-1.686,1.687c-0.932,0.932 -2.442,0.932 -3.374,0l-10.119,-10.12c-0.932,-0.932 -0.932,-2.443 0,-3.375l1.686,-1.685c0.931,-0.932 0.931,-2.445 0,-3.374l-3.372,-3.375c-0.933,-0.93 -2.443,-0.932 -3.374,0l-4.219,4.22c-0.466,0.465 -0.707,1.36 -0.508,1.988c1.75,5.53 5.481,11.415 9.787,15.721c4.303,4.304 10.189,8.036 15.72,9.783c0.63,0.2 1.525,-0.042 1.991,-0.508l4.216,-4.215c0.932,-0.933 0.932,-2.443 0,-3.375l-3.372,-3.372Z" style="fill:#f47c22;fill-rule:nonzero;"/></svg>