<?xml version="1.0" encoding="UTF-8" standalone="no"?><!DOCTYPE svg PUBLIC "-//W3C//DTD SVG 1.1//EN" "http://www.w3.org/Graphics/SVG/1.1/DTD/svg11.dtd"><svg width="100%" height="100%" viewBox="0 0 54 54" version="1.1" xmlns="http://www.w3.org/2000/svg" xmlns:xlink="http://www.w3.org/1999/xlink" xml:space="preserve" xmlns:serif="http://www.serif.com/" style="fill-rule:evenodd;clip-rule:evenodd;stroke-linejoin:round;stroke-miterlimit:1.41421;"><path d="M24.286,14.824l-2.732,2.733c-1.51,1.509 -1.507,3.966 0.008,5.483l9.108,9.106c1.526,1.526 3.971,1.521 5.482,0.01l2.734,-2.733c1.009,-1.011 2.644,-1.016 3.656,-0.003l10.031,10.031c1.514,1.514 1.52,3.96 -0.006,5.486l-5.47,5.47c-3.525,3.525 -9.922,4.452 -14.203,1.892c0,0 -6.853,-2.884 -17.662,-13.693c-10.808,-10.809 -13.799,-17.79 -13.799,-17.79c-2.493,-4.32 -1.646,-10.688 1.869,-14.204l5.469,-5.471c1.518,-1.515 3.964,-1.527 5.487,-0.005l10.031,10.031c1.009,1.01 1.012,2.643 -0.003,3.657m-17.335,-4.562c-1.867,1.868 -2.184,5.603 -1.047,7.975c0,0 1.822,3.307 2.649,4.525c2.438,3.599 5.831,7.696 10.329,12.195c4.499,4.498 8.57,7.868 12.126,10.273c1.2,0.812 4.537,2.639 4.537,2.639c2.161,1.132 6.002,0.79 7.901,-1.11l4.569,-4.569l-7.3,-7.298l-0.913,0.912c-3.531,3.533 -9.245,3.53 -12.782,-0.008l-9.106,-9.108c-3.529,-3.528 -3.538,-9.253 -0.01,-12.78l0.913,-0.914l-7.299,-7.299l-4.567,4.567Z" style="fill:#fff;fill-rule:nonzero;"/></svg>