<svg viewBox="0 0 54 54" xmlns="http://www.w3.org/2000/svg" fill-rule="evenodd" clip-rule="evenodd" stroke-linejoin="round" stroke-miterlimit="1.414"><path d="M24.286 14.824l-2.732 2.733a3.88 3.88 0 0 0 .008 5.483l9.108 9.106a3.868 3.868 0 0 0 5.482.01l2.734-2.733a2.58 2.58 0 0 1 3.656-.003l10.031 10.031a3.87 3.87 0 0 1-.006 5.486l-5.47 5.47c-3.525 3.525-9.922 4.452-14.203 1.892 0 0-6.853-2.884-17.662-13.693C4.424 27.797 1.433 20.816 1.433 20.816-1.06 16.496-.213 10.128 3.302 6.612l5.469-5.471a3.874 3.874 0 0 1 5.487-.005l10.031 10.031a2.582 2.582 0 0 1-.003 3.657M6.951 10.262c-1.867 1.868-2.184 5.603-1.047 7.975 0 0 1.822 3.307 2.649 4.525 2.438 3.599 5.831 7.696 10.329 12.195 4.499 4.498 8.57 7.868 12.126 10.273 1.2.812 4.537 2.639 4.537 2.639 2.161 1.132 6.002.79 7.901-1.11l4.569-4.569-7.3-7.298-.913.912c-3.531 3.533-9.245 3.53-12.782-.008l-9.106-9.108c-3.529-3.528-3.538-9.253-.01-12.78l.913-.914-7.299-7.299-4.567 4.567z" fill="#fff" fill-rule="nonzero"/></svg>