<?xml version="1.0" encoding="utf-8"?>
<!-- Generator: Adobe Illustrator 19.1.0, SVG Export Plug-In . SVG Version: 6.00 Build 0)  -->
<svg version="1.1" id="Layer_1" xmlns="http://www.w3.org/2000/svg" xmlns:xlink="http://www.w3.org/1999/xlink" x="0px" y="0px"
	 viewBox="0 0 27.5 27.5" style="enable-background:new 0 0 27.5 27.5;" xml:space="preserve">
<style type="text/css">
	.st0{fill:#fff;}
</style>
<g transform="translate(0,-952.36218)">
	<path class="st0" d="M12.6,957.2c-4.1,0-7.4,3.3-7.4,7.4c0,4.1,3.3,7.4,7.4,7.4c1.6,0,3-0.5,4.2-1.3l4.4,4.4c0.5,0.5,1.3,0.5,1.8,0
		c0.5-0.5,0.5-1.3,0-1.8l-4.4-4.4c0.8-1.2,1.3-2.7,1.3-4.2C20,960.5,16.7,957.2,12.6,957.2z M12.6,959.8c2.7,0,4.8,2.1,4.8,4.8
		c0,2.7-2.1,4.8-4.8,4.8c-2.7,0-4.8-2.1-4.8-4.8C7.8,961.9,9.9,959.8,12.6,959.8z"/>
</g>
</svg>
