<?xml version="1.0" encoding="utf-8"?>
<!-- Generator: Adobe Illustrator 19.1.0, SVG Export Plug-In . SVG Version: 6.00 Build 0)  -->
<svg version="1.1" id="Layer_1" xmlns="http://www.w3.org/2000/svg" xmlns:xlink="http://www.w3.org/1999/xlink" x="0px" y="0px"
	 viewBox="0 0 45 45" style="enable-background:new 0 0 45 45;" xml:space="preserve">
<style type="text/css">
	.st0{fill:#8e8e8e;}
</style>
<path class="st0" d="M37,12c1.6-1,2.8-2.5,3.4-4.3c-1.5,0.9-3.2,1.5-4.9,1.9C34,8,32,7.1,29.8,7.1c-4.3,0-7.8,3.5-7.8,7.8
	c0,0.6,0.1,1.2,0.2,1.8c-6.5-0.3-12.2-3.4-16-8.1C5.5,9.7,5.1,11,5.1,12.4c0,2.7,2.2,5.1,4.3,6.5c-1.3,0-2.7-0.4-2.7-1
	c0,0,0,0.1,0,0.1c0,3.8,1.8,6.9,5.4,7.6c-0.7,0.2-1.8,0.3-2.5,0.3c-0.5,0-1.2-0.1-1.7-0.1c1,3.1,3.8,5.3,7.2,5.4
	c-2.7,2.1-6.1,3.3-9.7,3.3c-0.6,0-1.3,0-1.9-0.1c3.4,2.2,7.5,3.5,11.9,3.5c14.3,0,22.1-11.9,22.1-22.1c0-0.3,0-0.7,0-1
	c1.5-1.1,2.8-2.5,3.9-4C40.1,11.4,38.6,11.8,37,12z"/>
</svg>
