<svg viewBox="0 0 43 35" xmlns="http://www.w3.org/2000/svg" fill-rule="evenodd" clip-rule="evenodd" stroke-linejoin="round" stroke-miterlimit="1.414"><path d="M42.742 4.113a17.547 17.547 0 0 1-5.037 1.383A8.798 8.798 0 0 0 41.562.642a17.499 17.499 0 0 1-5.571 2.129 8.774 8.774 0 0 0-15.175 6.003c0 .689.078 1.357.227 1.998-7.289-.365-13.756-3.856-18.082-9.164a8.756 8.756 0 0 0-1.185 4.409c0 3.043 2.025 5.727 4.379 7.303-1.438-.047-3.497-.444-3.497-1.102v.115c0 4.249 2.547 7.793 6.558 8.601-.736.199-1.747.309-2.548.309a9.937 9.937 0 0 1-1.771-.162c1.117 3.486 4.298 6.023 8.134 6.095a17.705 17.705 0 0 1-10.923 3.753c-.709 0-1.422-.042-2.108-.12a24.84 24.84 0 0 0 13.438 3.941c16.138 0 24.955-13.366 24.955-24.958 0-.381-.01-.763-.029-1.138a17.75 17.75 0 0 0 4.378-4.541" fill="#5fc5ed" fill-rule="nonzero"/></svg>