<svg xmlns="http://www.w3.org/2000/svg" viewBox="0 0 45 45"><path d="M37 12c1.6-1 2.8-2.5 3.4-4.3-1.5.9-3.2 1.5-4.9 1.9C34 8 32 7.1 29.8 7.1c-4.3 0-7.8 3.5-7.8 7.8 0 .6.1 1.2.2 1.8-6.5-.3-12.2-3.4-16-8.1-.7 1.1-1.1 2.4-1.1 3.8 0 2.7 2.2 5.1 4.3 6.5-1.3 0-2.7-.4-2.7-1v.1c0 3.8 1.8 6.9 5.4 7.6-.7.2-1.8.3-2.5.3-.5 0-1.2-.1-1.7-.1 1 3.1 3.8 5.3 7.2 5.4-2.7 2.1-6.1 3.3-9.7 3.3-.6 0-1.3 0-1.9-.1 3.4 2.2 7.5 3.5 11.9 3.5 14.3 0 22.1-11.9 22.1-22.1v-1c1.5-1.1 2.8-2.5 3.9-4-1.3.6-2.8 1-4.4 1.2z" fill="#bac6ce"/></svg>