<?xml version="1.0" encoding="UTF-8" standalone="no"?><!DOCTYPE svg PUBLIC "-//W3C//DTD SVG 1.1//EN" "http://www.w3.org/Graphics/SVG/1.1/DTD/svg11.dtd"><svg width="100%" height="100%" viewBox="0 0 43 35" version="1.1" xmlns="http://www.w3.org/2000/svg" xmlns:xlink="http://www.w3.org/1999/xlink" xml:space="preserve" xmlns:serif="http://www.serif.com/" style="fill-rule:evenodd;clip-rule:evenodd;stroke-linejoin:round;stroke-miterlimit:1.41421;"><path d="M42.742,4.113c-1.573,0.699 -3.262,1.169 -5.037,1.383c1.811,-1.085 3.2,-2.803 3.857,-4.854c-1.696,1.007 -3.575,1.738 -5.571,2.129c-1.6,-1.706 -3.881,-2.771 -6.401,-2.771c-4.847,0 -8.774,3.93 -8.774,8.774c0,0.689 0.078,1.357 0.227,1.998c-7.289,-0.365 -13.756,-3.856 -18.082,-9.164c-0.752,1.294 -1.185,2.803 -1.185,4.409c0,3.043 2.025,5.727 4.379,7.303c-1.438,-0.047 -3.497,-0.444 -3.497,-1.102l0,0.115c0,4.249 2.547,7.793 6.558,8.601c-0.736,0.199 -1.747,0.309 -2.548,0.309c-0.567,0 -1.234,-0.058 -1.771,-0.162c1.117,3.486 4.298,6.023 8.134,6.095c-3.001,2.349 -6.815,3.753 -10.923,3.753c-0.709,0 -1.422,-0.042 -2.108,-0.12c3.884,2.485 8.485,3.941 13.438,3.941c16.138,0 24.955,-13.366 24.955,-24.958c0,-0.381 -0.01,-0.763 -0.029,-1.138c1.718,-1.237 3.203,-2.782 4.378,-4.541" style="fill:#5fc5ed;fill-rule:nonzero;"/></svg>