<?xml version="1.0" encoding="UTF-8" standalone="no"?><!DOCTYPE svg PUBLIC "-//W3C//DTD SVG 1.1//EN" "http://www.w3.org/Graphics/SVG/1.1/DTD/svg11.dtd"><svg width="100%" height="100%" viewBox="0 0 44 33" version="1.1" xmlns="http://www.w3.org/2000/svg" xmlns:xlink="http://www.w3.org/1999/xlink" xml:space="preserve" xmlns:serif="http://www.serif.com/" style="fill-rule:evenodd;clip-rule:evenodd;stroke-linejoin:round;stroke-miterlimit:1.41421;"><rect x="12.51" y="7" width="20.25" height="20" style="fill:#fff;"/><path d="M29.168,16.924l-11.767,7.173c-0.671,0.408 -1.216,0.095 -1.216,-0.703l0,-14.422c0,-0.798 0.545,-1.11 1.216,-0.7l11.767,7.17c0.671,0.408 0.671,1.074 0,1.482m6.94,-16.924l-29.033,0c-3.877,0 -7.075,3.416 -7.075,7.541l0,17.28c0,4.16 3.198,7.547 7.075,7.547l29.033,0c3.885,0 7.049,-3.387 7.049,-7.547l0,-17.28c0,-4.125 -3.164,-7.541 -7.049,-7.541" style="fill:#dd4939;fill-rule:nonzero;"/></svg>