<svg viewBox="0 0 44 33" width="44" height="33" xmlns="http://www.w3.org/2000/svg" fill-rule="evenodd" clip-rule="evenodd" stroke-linejoin="round" stroke-miterlimit="1.414"><path fill="#fff" d="M12.51 7h20.25v20H12.51z"/><path d="M29.168 16.924l-11.767 7.173c-.671.408-1.216.095-1.216-.703V8.972c0-.798.545-1.11 1.216-.7l11.767 7.17c.671.408.671 1.074 0 1.482M36.108 0H7.075C3.198 0 0 3.416 0 7.541v17.28c0 4.16 3.198 7.547 7.075 7.547h29.033c3.885 0 7.049-3.387 7.049-7.547V7.541C43.157 3.416 39.993 0 36.108 0" fill="#dd4939" fill-rule="nonzero"/></svg>
