<?xml version="1.0" standalone="no"?>
<!DOCTYPE svg PUBLIC "-//W3C//DTD SVG 20010904//EN"
 "http://www.w3.org/TR/2001/REC-SVG-20010904/DTD/svg10.dtd">
<svg version="1.0" xmlns="http://www.w3.org/2000/svg"
 width="700.000000pt" height="700.000000pt" viewBox="0 0 700.000000 700.000000"
 preserveAspectRatio="xMidYMid meet">
<metadata>
Created by potrace 1.11, written by Peter Selinger 2001-2013
</metadata>
<g transform="translate(0.000000,700.000000) scale(0.100000,-0.100000)"
fill="#000000" stroke="none">
<path d="M6856 5903 c-1 -1 -26 -4 -56 -8 -116 -11 -175 -18 -345 -39 -66 -9
-142 -18 -170 -21 -27 -3 -66 -7 -85 -10 -19 -3 -60 -7 -90 -10 -30 -3 -62 -8
-70 -10 -8 -2 -46 -7 -85 -11 -38 -3 -77 -7 -86 -9 -9 -2 -40 -6 -70 -10 -30
-3 -65 -8 -79 -10 -14 -2 -99 -14 -190 -25 -91 -11 -176 -23 -190 -25 -14 -2
-52 -6 -85 -10 -33 -3 -67 -8 -75 -10 -8 -2 -42 -6 -75 -10 -33 -3 -67 -8 -75
-10 -8 -2 -46 -7 -84 -10 -38 -3 -72 -8 -75 -9 -3 -2 -33 -6 -66 -10 -33 -3
-71 -8 -85 -11 -14 -2 -63 -9 -110 -15 -132 -17 -163 -21 -190 -25 -14 -2 -63
-9 -110 -15 -47 -6 -100 -13 -117 -16 -18 -2 -48 -6 -65 -8 -18 -3 -71 -10
-118 -16 -47 -6 -96 -13 -110 -15 -14 -2 -81 -11 -150 -20 -69 -9 -136 -18
-150 -20 -14 -2 -45 -6 -70 -10 -25 -3 -56 -8 -70 -10 -14 -2 -50 -7 -80 -10
-30 -3 -67 -8 -82 -11 -15 -3 -40 -7 -57 -9 -45 -6 -192 -25 -221 -30 -46 -7
-115 -17 -140 -20 -14 -2 -47 -7 -75 -10 -27 -4 -61 -8 -75 -10 -26 -4 -78
-11 -152 -20 -24 -3 -68 -10 -98 -15 -30 -5 -79 -12 -109 -15 -30 -4 -62 -8
-71 -10 -9 -2 -39 -6 -66 -9 -27 -4 -62 -8 -79 -10 -16 -2 -46 -7 -65 -10 -19
-3 -53 -8 -75 -11 -22 -3 -53 -8 -70 -10 -46 -7 -435 -63 -480 -69 -60 -8
-187 -26 -215 -31 -14 -2 -45 -7 -70 -10 -25 -3 -56 -7 -70 -10 -35 -7 -76
-13 -140 -20 -30 -4 -57 -8 -60 -10 -3 -2 -29 -6 -59 -10 -30 -4 -63 -9 -75
-11 -12 -2 -34 -6 -51 -8 -16 -3 -43 -7 -60 -10 -57 -9 -115 -18 -138 -21 -12
-1 -35 -5 -52 -8 -16 -3 -52 -8 -80 -12 -27 -3 -57 -8 -65 -10 -8 -2 -31 -6
-50 -9 -82 -13 -201 -36 -240 -46 -41 -11 -42 -13 -36 -43 16 -82 137 -271
222 -348 31 -27 48 -35 72 -33 68 4 171 15 287 30 66 8 140 17 165 20 25 3 56
7 70 9 14 2 50 7 80 10 53 5 109 12 160 20 14 2 50 6 80 10 30 3 71 8 90 10
44 5 188 24 300 39 25 4 59 8 75 11 17 2 46 6 65 9 54 8 180 25 235 31 28 3
61 7 75 10 14 2 48 7 75 10 28 3 64 8 80 10 95 13 112 16 135 20 14 2 51 7 84
10 32 3 61 7 65 9 3 2 37 7 74 11 37 3 76 8 86 10 10 2 42 6 72 10 30 3 65 8
79 10 14 2 45 7 70 10 25 4 56 8 70 10 14 2 50 6 80 10 30 3 66 8 80 10 14 2
45 7 70 10 78 10 124 16 150 20 14 2 50 7 80 10 30 3 62 8 70 10 8 2 40 6 70
10 30 3 66 7 79 10 12 2 43 7 67 9 25 3 89 12 143 20 54 8 120 18 147 21 27 4
90 12 139 20 50 7 115 17 145 20 30 4 57 8 60 10 3 2 39 6 80 10 41 4 77 8 80
10 3 2 30 6 60 10 30 3 80 10 110 15 30 5 79 12 109 15 30 4 63 8 74 11 11 2
57 8 101 14 45 6 92 13 106 15 14 2 45 6 70 10 25 3 56 8 70 10 14 2 43 7 65
10 22 2 135 18 250 34 116 17 230 33 255 36 25 3 86 12 135 20 50 8 126 19
170 25 44 6 103 15 130 20 28 4 84 13 125 19 41 6 145 23 230 37 85 14 169 27
185 30 71 11 91 18 108 38 15 17 108 197 112 216 1 3 9 23 19 45 10 22 26 60
36 85 10 25 26 62 35 83 l16 38 -61 -3 c-34 -2 -62 -4 -64 -5z"/>
<path d="M6007 5044 c-1 -1 -31 -5 -67 -9 -36 -3 -92 -10 -125 -15 -33 -5 -85
-12 -115 -15 -30 -3 -66 -8 -80 -10 -14 -2 -47 -7 -75 -10 -27 -3 -66 -7 -85
-10 -19 -2 -57 -7 -85 -10 -27 -4 -61 -8 -75 -10 -14 -2 -50 -7 -80 -10 -30
-3 -66 -8 -80 -10 -14 -2 -50 -7 -80 -10 -30 -3 -66 -7 -80 -10 -14 -2 -47 -7
-75 -10 -96 -11 -140 -16 -165 -20 -14 -2 -65 -9 -115 -15 -49 -6 -106 -12
-125 -15 -89 -11 -358 -46 -385 -50 -16 -2 -57 -7 -90 -10 -33 -4 -71 -8 -85
-10 -14 -2 -47 -6 -75 -10 -27 -3 -79 -10 -115 -15 -36 -5 -85 -12 -110 -14
-25 -3 -133 -17 -240 -30 -107 -14 -215 -27 -240 -30 -25 -3 -61 -7 -80 -10
-19 -3 -78 -10 -130 -16 -52 -6 -106 -13 -120 -15 -14 -2 -65 -9 -115 -15 -49
-6 -101 -13 -115 -15 -14 -2 -50 -7 -80 -10 -30 -3 -66 -8 -80 -10 -14 -2 -50
-7 -80 -10 -30 -3 -66 -8 -80 -10 -14 -3 -50 -7 -80 -11 -106 -12 -198 -23
-240 -29 -14 -2 -50 -7 -80 -10 -30 -4 -68 -9 -85 -11 -16 -2 -54 -6 -83 -10
-29 -3 -61 -7 -70 -9 -16 -2 -85 -11 -162 -20 -49 -6 -199 -25 -235 -30 -16
-2 -52 -7 -80 -10 -27 -4 -57 -8 -65 -11 -14 -3 -15 -78 -14 -661 2 -362 3
-1080 3 -1595 l1 -938 651 0 c598 0 651 1 645 16 -22 56 -37 218 -32 329 13
286 113 525 305 727 153 162 405 302 601 333 338 53 622 -9 878 -192 228 -162
401 -429 448 -690 2 -13 7 -35 10 -50 14 -69 11 -274 -7 -365 -10 -51 -18 -96
-18 -100 -1 -5 332 -8 739 -8 l740 0 0 1909 0 1910 -20 -2 c-12 -1 -22 -2 -23
-3z m-2818 -859 c57 -29 114 -84 156 -150 34 -54 80 -162 89 -210 19 -109 22
-144 20 -227 -7 -202 -68 -365 -178 -473 -72 -70 -132 -97 -218 -97 -206 2
-380 268 -380 582 0 128 10 196 44 290 92 255 290 376 467 285z m977 2 c99
-50 180 -154 228 -292 30 -88 35 -117 41 -236 7 -152 -22 -296 -84 -413 -38
-73 -124 -161 -186 -191 -172 -85 -364 30 -455 272 -12 32 -24 67 -26 78 -2
11 -7 34 -11 50 -11 49 -12 65 -13 166 -3 397 259 691 506 566z m-1852 -788
c116 -57 209 -199 252 -384 16 -68 22 -260 10 -315 -3 -14 -8 -38 -12 -55 -17
-87 -60 -185 -112 -255 -185 -249 -474 -177 -596 149 -130 348 1 793 256 877
58 19 146 11 202 -17z m2679 -68 c107 -52 204 -196 248 -366 61 -238 -6 -550
-148 -687 -91 -89 -148 -114 -243 -105 -69 6 -121 31 -180 88 -80 78 -116 142
-155 274 -45 152 -39 368 14 511 55 144 146 255 244 293 66 27 156 23 220 -8z"/>
</g>
</svg>
